# Tiled2Unity generated file. Do not modify by hand.
# Wavefront file for 'Map-2-1_mesh_0002.obj'

# Vertices (Count = 248)
v -25 -19 0
v -26 -19 0
v -26 -18 0
v -25 -18 0
v -24 -19 0
v -25 -19 0
v -25 -18 0
v -24 -18 0
v -23 -19 0
v -24 -19 0
v -24 -18 0
v -23 -18 0
v -22 -19 0
v -23 -19 0
v -23 -18 0
v -22 -18 0
v -21 -19 0
v -22 -19 0
v -22 -18 0
v -21 -18 0
v -20 -19 0
v -21 -19 0
v -21 -18 0
v -20 -18 0
v -19 -19 0
v -20 -19 0
v -20 -18 0
v -19 -18 0
v -18 -19 0
v -19 -19 0
v -19 -18 0
v -18 -18 0
v -17 -19 0
v -18 -19 0
v -18 -18 0
v -17 -18 0
v -16 -19 0
v -17 -19 0
v -17 -18 0
v -16 -18 0
v -12 -19 0
v -13 -19 0
v -13 -18 0
v -12 -18 0
v -11 -19 0
v -12 -19 0
v -12 -18 0
v -11 -18 0
v -10 -19 0
v -11 -19 0
v -11 -18 0
v -10 -18 0
v -9 -19 0
v -10 -19 0
v -10 -18 0
v -9 -18 0
v -25 -18 0
v -26 -18 0
v -26 -17 0
v -25 -17 0
v -24 -18 0
v -25 -18 0
v -25 -17 0
v -24 -17 0
v -23 -18 0
v -24 -18 0
v -24 -17 0
v -23 -17 0
v -22 -18 0
v -23 -18 0
v -23 -17 0
v -22 -17 0
v -21 -18 0
v -22 -18 0
v -22 -17 0
v -21 -17 0
v -20 -18 0
v -21 -18 0
v -21 -17 0
v -20 -17 0
v -19 -18 0
v -20 -18 0
v -20 -17 0
v -19 -17 0
v -18 -18 0
v -19 -18 0
v -19 -17 0
v -18 -17 0
v -17 -18 0
v -18 -18 0
v -18 -17 0
v -17 -17 0
v -16 -18 0
v -17 -18 0
v -17 -17 0
v -16 -17 0
v -12 -18 0
v -13 -18 0
v -13 -17 0
v -12 -17 0
v -11 -18 0
v -12 -18 0
v -12 -17 0
v -11 -17 0
v -10 -18 0
v -11 -18 0
v -11 -17 0
v -10 -17 0
v -9 -18 0
v -10 -18 0
v -10 -17 0
v -9 -17 0
v -25 -17 0
v -26 -17 0
v -26 -16 0
v -25 -16 0
v -24 -17 0
v -25 -17 0
v -25 -16 0
v -24 -16 0
v -23 -17 0
v -24 -17 0
v -24 -16 0
v -23 -16 0
v -22 -17 0
v -23 -17 0
v -23 -16 0
v -22 -16 0
v -21 -17 0
v -22 -17 0
v -22 -16 0
v -21 -16 0
v -21 -15 0
v -22 -15 0
v -22 -14 0
v -21 -14 0
v -21 -14 0
v -22 -14 0
v -22 -13 0
v -21 -13 0
v -21 -13 0
v -22 -13 0
v -22 -12 0
v -21 -12 0
v -13 -12 0
v -14 -12 0
v -14 -11 0
v -13 -11 0
v -12 -12 0
v -13 -12 0
v -13 -11 0
v -12 -11 0
v -11 -12 0
v -12 -12 0
v -12 -11 0
v -11 -11 0
v -10 -12 0
v -11 -12 0
v -11 -11 0
v -10 -11 0
v -9 -12 0
v -10 -12 0
v -10 -11 0
v -9 -11 0
v -8 -12 0
v -9 -12 0
v -9 -11 0
v -8 -11 0
v -7 -12 0
v -8 -12 0
v -8 -11 0
v -7 -11 0
v -13 -11 0
v -14 -11 0
v -14 -10 0
v -13 -10 0
v -12 -11 0
v -13 -11 0
v -13 -10 0
v -12 -10 0
v -11 -11 0
v -12 -11 0
v -12 -10 0
v -11 -10 0
v -10 -11 0
v -11 -11 0
v -11 -10 0
v -10 -10 0
v -9 -11 0
v -10 -11 0
v -10 -10 0
v -9 -10 0
v -8 -11 0
v -9 -11 0
v -9 -10 0
v -8 -10 0
v -7 -11 0
v -8 -11 0
v -8 -10 0
v -7 -10 0
v -22 -9 0
v -23 -9 0
v -23 -8 0
v -22 -8 0
v -21 -9 0
v -22 -9 0
v -22 -8 0
v -21 -8 0
v -20 -9 0
v -21 -9 0
v -21 -8 0
v -20 -8 0
v -19 -9 0
v -20 -9 0
v -20 -8 0
v -19 -8 0
v -18 -9 0
v -19 -9 0
v -19 -8 0
v -18 -8 0
v -13 -9 0
v -14 -9 0
v -14 -8 0
v -13 -8 0
v -12 -9 0
v -13 -9 0
v -13 -8 0
v -12 -8 0
v -11 -9 0
v -12 -9 0
v -12 -8 0
v -11 -8 0
v -10 -9 0
v -11 -9 0
v -11 -8 0
v -10 -8 0
v -25 -4 0
v -26 -4 0
v -26 -3 0
v -25 -3 0
v -24 -4 0
v -25 -4 0
v -25 -3 0
v -24 -3 0
v -23 -4 0
v -24 -4 0
v -24 -3 0
v -23 -3 0

# Texture cooridinates (Count = 31)
vt 0.2 0.4444444
vt 0.175 0.4444444
vt 0.175 0.4722222
vt 0.2 0.4722222
vt 0.1 0.4166667
vt 0.125 0.4166667
vt 0.125 0.4444444
vt 0.1 0.4444444
vt 0.125 0.3888889
vt 0.15 0.3888889
vt 0.15 0.4166667
vt 0.175 0.5833334
vt 0.15 0.5833334
vt 0.15 0.6111111
vt 0.175 0.6111111
vt 0.125 0.5833334
vt 0.125 0.6111111
vt 0.1 0.5833334
vt 0.1 0.6111111
vt 0.15 0.6388889
vt 0.125 0.6388889
vt 0.175 0.6388889
vt 0.1 0.6388889
vt 0.125 0.6666666
vt 0.1 0.6666666
vt 0.15 0.6666666
vt 0.175 0.6666666
vt 0.1 0.6944444
vt 0.125 0.6944444
vt 0.125 0.7222222
vt 0.1 0.7222222

# Normal
vn 0 0 -1

# Mesh description
g Map-2-1_mesh_0002

# Faces
f 1/1/1 2/2/1 3/3/1 4/4/1
f 5/5/1 6/6/1 7/7/1 8/8/1
f 9/5/1 10/6/1 11/7/1 12/8/1
f 13/9/1 14/10/1 15/11/1 16/6/1
f 17/12/1 18/13/1 19/14/1 20/15/1
f 21/13/1 22/12/1 23/15/1 24/14/1
f 25/16/1 26/13/1 27/14/1 28/17/1
f 29/16/1 30/13/1 31/14/1 32/17/1
f 33/16/1 34/13/1 35/14/1 36/17/1
f 37/18/1 38/16/1 39/17/1 40/19/1
f 41/13/1 42/12/1 43/15/1 44/14/1
f 45/16/1 46/13/1 47/14/1 48/17/1
f 49/16/1 50/13/1 51/14/1 52/17/1
f 53/16/1 54/13/1 55/14/1 56/17/1
f 57/17/1 58/14/1 59/20/1 60/21/1
f 61/17/1 62/14/1 63/20/1 64/21/1
f 65/17/1 66/14/1 67/20/1 68/21/1
f 69/17/1 70/14/1 71/20/1 72/21/1
f 73/15/1 74/14/1 75/20/1 76/22/1
f 77/14/1 78/15/1 79/22/1 80/20/1
f 81/17/1 82/19/1 83/23/1 84/21/1
f 85/14/1 86/17/1 87/21/1 88/20/1
f 89/17/1 90/19/1 91/23/1 92/21/1
f 93/23/1 94/21/1 95/24/1 96/25/1
f 97/14/1 98/15/1 99/22/1 100/20/1
f 101/17/1 102/19/1 103/23/1 104/21/1
f 105/14/1 106/17/1 107/21/1 108/20/1
f 109/17/1 110/19/1 111/23/1 112/21/1
f 113/21/1 114/23/1 115/25/1 116/24/1
f 117/20/1 118/21/1 119/24/1 120/26/1
f 121/21/1 122/23/1 123/25/1 124/24/1
f 125/20/1 126/21/1 127/24/1 128/26/1
f 129/22/1 130/20/1 131/26/1 132/27/1
f 133/28/1 134/29/1 135/30/1 136/31/1
f 137/28/1 138/29/1 139/30/1 140/31/1
f 141/28/1 142/29/1 143/30/1 144/31/1
f 145/13/1 146/12/1 147/15/1 148/14/1
f 149/16/1 150/13/1 151/14/1 152/17/1
f 153/16/1 154/13/1 155/14/1 156/17/1
f 157/16/1 158/13/1 159/14/1 160/17/1
f 161/16/1 162/13/1 163/14/1 164/17/1
f 165/16/1 166/13/1 167/14/1 168/17/1
f 169/18/1 170/16/1 171/17/1 172/19/1
f 173/13/1 174/12/1 175/15/1 176/14/1
f 177/16/1 178/13/1 179/14/1 180/17/1
f 181/16/1 182/13/1 183/14/1 184/17/1
f 185/16/1 186/13/1 187/14/1 188/17/1
f 189/16/1 190/13/1 191/14/1 192/17/1
f 193/16/1 194/13/1 195/14/1 196/17/1
f 197/18/1 198/16/1 199/17/1 200/19/1
f 201/16/1 202/13/1 203/14/1 204/17/1
f 205/16/1 206/13/1 207/14/1 208/17/1
f 209/16/1 210/13/1 211/14/1 212/17/1
f 213/16/1 214/13/1 215/14/1 216/17/1
f 217/18/1 218/16/1 219/17/1 220/19/1
f 221/16/1 222/13/1 223/14/1 224/17/1
f 225/16/1 226/13/1 227/14/1 228/17/1
f 229/16/1 230/13/1 231/14/1 232/17/1
f 233/18/1 234/16/1 235/17/1 236/19/1
f 237/16/1 238/13/1 239/14/1 240/17/1
f 241/16/1 242/13/1 243/14/1 244/17/1
f 245/18/1 246/16/1 247/17/1 248/19/1

