# Tiled2Unity generated file. Do not modify by hand.
# Wavefront file for 'Map-2-1_mesh_0005.obj'

# Vertices (Count = 372)
v -22 -19 0
v -23 -19 0
v -23 -18 0
v -22 -18 0
v -19 -19 0
v -20 -19 0
v -20 -18 0
v -19 -18 0
v -12 -19 0
v -13 -19 0
v -13 -18 0
v -12 -18 0
v -6 -19 0
v -7 -19 0
v -7 -18 0
v -6 -18 0
v -24 -18 0
v -25 -18 0
v -25 -17 0
v -24 -17 0
v -17 -18 0
v -18 -18 0
v -18 -17 0
v -17 -17 0
v -11 -18 0
v -12 -18 0
v -12 -17 0
v -11 -17 0
v -9 -18 0
v -10 -18 0
v -10 -17 0
v -9 -17 0
v -22 -17 0
v -23 -17 0
v -23 -16 0
v -22 -16 0
v -12 -17 0
v -13 -17 0
v -13 -16 0
v -12 -16 0
v -11 -17 0
v -12 -17 0
v -12 -16 0
v -11 -16 0
v -10 -17 0
v -11 -17 0
v -11 -16 0
v -10 -16 0
v -9 -17 0
v -10 -17 0
v -10 -16 0
v -9 -16 0
v -25 -16 0
v -26 -16 0
v -26 -15 0
v -25 -15 0
v -24 -16 0
v -25 -16 0
v -25 -15 0
v -24 -15 0
v -22 -16 0
v -23 -16 0
v -23 -15 0
v -22 -15 0
v -18 -16 0
v -19 -16 0
v -19 -15 0
v -18 -15 0
v -10 -16 0
v -11 -16 0
v -11 -15 0
v -10 -15 0
v -9 -16 0
v -10 -16 0
v -10 -15 0
v -9 -15 0
v -16 -15 0
v -17 -15 0
v -17 -14 0
v -16 -14 0
v -10 -15 0
v -11 -15 0
v -11 -14 0
v -10 -14 0
v -9 -15 0
v -10 -15 0
v -10 -14 0
v -9 -14 0
v -21 -14 0
v -22 -14 0
v -22 -13 0
v -21 -13 0
v -19 -14 0
v -20 -14 0
v -20 -13 0
v -19 -13 0
v -16 -14 0
v -17 -14 0
v -17 -13 0
v -16 -13 0
v -21 -13 0
v -22 -13 0
v -22 -12 0
v -21 -12 0
v -20 -13 0
v -21 -13 0
v -21 -12 0
v -20 -12 0
v -17 -13 0
v -18 -13 0
v -18 -12 0
v -17 -12 0
v -16 -13 0
v -17 -13 0
v -17 -12 0
v -16 -12 0
v -25 -12 0
v -26 -12 0
v -26 -11 0
v -25 -11 0
v -23 -12 0
v -24 -12 0
v -24 -11 0
v -23 -11 0
v -22 -12 0
v -23 -12 0
v -23 -11 0
v -22 -11 0
v -13 -11 0
v -14 -11 0
v -14 -10 0
v -13 -10 0
v -12 -11 0
v -13 -11 0
v -13 -10 0
v -12 -10 0
v -10 -11 0
v -11 -11 0
v -11 -10 0
v -10 -10 0
v -9 -11 0
v -10 -11 0
v -10 -10 0
v -9 -10 0
v -8 -11 0
v -9 -11 0
v -9 -10 0
v -8 -10 0
v -12 -10 0
v -13 -10 0
v -13 -9 0
v -12 -9 0
v -20 -9 0
v -21 -9 0
v -21 -8 0
v -20 -8 0
v -7 -9 0
v -8 -9 0
v -8 -8 0
v -7 -8 0
v -20 -8 0
v -21 -8 0
v -21 -7 0
v -20 -7 0
v -13 -8 0
v -14 -8 0
v -14 -7 0
v -13 -7 0
v -9 -8 0
v -10 -8 0
v -10 -7 0
v -9 -7 0
v -20 -7 0
v -21 -7 0
v -21 -6 0
v -20 -6 0
v -19 -7 0
v -20 -7 0
v -20 -6 0
v -19 -6 0
v -13 -7 0
v -14 -7 0
v -14 -6 0
v -13 -6 0
v -20 -6 0
v -21 -6 0
v -21 -5 0
v -20 -5 0
v -13 -6 0
v -14 -6 0
v -14 -5 0
v -13 -5 0
v -11 -5 0
v -12 -5 0
v -12 -4 0
v -11 -4 0
v 0 -5 0
v -1 -5 0
v -1 -4 0
v 0 -4 0
v -21 -4 0
v -22 -4 0
v -22 -3 0
v -21 -3 0
v -13 -4 0
v -14 -4 0
v -14 -3 0
v -13 -3 0
v -7 -4 0
v -8 -4 0
v -8 -3 0
v -7 -3 0
v -6 -4 0
v -7 -4 0
v -7 -3 0
v -6 -3 0
v 0 -4 0
v -1 -4 0
v -1 -3 0
v 0 -3 0
v -13 -3 0
v -14 -3 0
v -14 -2 0
v -13 -2 0
v -8 -3 0
v -9 -3 0
v -9 -2 0
v -8 -2 0
v -7 -3 0
v -8 -3 0
v -8 -2 0
v -7 -2 0
v -6 -3 0
v -7 -3 0
v -7 -2 0
v -6 -2 0
v 0 -3 0
v -1 -3 0
v -1 -2 0
v 0 -2 0
v -19 -2 0
v -20 -2 0
v -20 -1 0
v -19 -1 0
v -17 -2 0
v -18 -2 0
v -18 -1 0
v -17 -1 0
v -14 -2 0
v -15 -2 0
v -15 -1 0
v -14 -1 0
v -13 -2 0
v -14 -2 0
v -14 -1 0
v -13 -1 0
v -7 -2 0
v -8 -2 0
v -8 -1 0
v -7 -1 0
v -6 -2 0
v -7 -2 0
v -7 -1 0
v -6 -1 0
v 0 -2 0
v -1 -2 0
v -1 -1 0
v 0 -1 0
v -25 -1 0
v -26 -1 0
v -26 0 0
v -25 0 0
v -24 -1 0
v -25 -1 0
v -25 0 0
v -24 0 0
v -23 -1 0
v -24 -1 0
v -24 0 0
v -23 0 0
v -22 -1 0
v -23 -1 0
v -23 0 0
v -22 0 0
v -21 -1 0
v -22 -1 0
v -22 0 0
v -21 0 0
v -20 -1 0
v -21 -1 0
v -21 0 0
v -20 0 0
v -19 -1 0
v -20 -1 0
v -20 0 0
v -19 0 0
v -18 -1 0
v -19 -1 0
v -19 0 0
v -18 0 0
v -17 -1 0
v -18 -1 0
v -18 0 0
v -17 0 0
v -16 -1 0
v -17 -1 0
v -17 0 0
v -16 0 0
v -15 -1 0
v -16 -1 0
v -16 0 0
v -15 0 0
v -14 -1 0
v -15 -1 0
v -15 0 0
v -14 0 0
v -13 -1 0
v -14 -1 0
v -14 0 0
v -13 0 0
v -12 -1 0
v -13 -1 0
v -13 0 0
v -12 0 0
v -11 -1 0
v -12 -1 0
v -12 0 0
v -11 0 0
v -10 -1 0
v -11 -1 0
v -11 0 0
v -10 0 0
v -9 -1 0
v -10 -1 0
v -10 0 0
v -9 0 0
v -8 -1 0
v -9 -1 0
v -9 0 0
v -8 0 0
v -7 -1 0
v -8 -1 0
v -8 0 0
v -7 0 0
v -6 -1 0
v -7 -1 0
v -7 0 0
v -6 0 0
v -5 -1 0
v -6 -1 0
v -6 0 0
v -5 0 0
v -4 -1 0
v -5 -1 0
v -5 0 0
v -4 0 0
v -3 -1 0
v -4 -1 0
v -4 0 0
v -3 0 0
v -2 -1 0
v -3 -1 0
v -3 0 0
v -2 0 0
v -1 -1 0
v -2 -1 0
v -2 0 0
v -1 0 0
v 0 -1 0
v -1 -1 0
v -1 0 0
v 0 0 0

# Texture cooridinates (Count = 60)
vt 0 0.6111111
vt 0.025 0.6111111
vt 0.025 0.6388889
vt 0 0.6388889
vt 0.05 0.5833334
vt 0.075 0.5833334
vt 0.075 0.6111111
vt 0.05 0.6111111
vt 0.05 0.6388889
vt 0.05 0.6666666
vt 0.025 0.6666666
vt 0 0.6666666
vt 0.025 0.5277778
vt 0.05 0.5277778
vt 0.05 0.5555556
vt 0.025 0.5555556
vt 0.075 0.5555556
vt 0.025 0.5833334
vt 0 0.5277778
vt 0 0.5555556
vt 0.8 0.9722222
vt 0.825 0.9722222
vt 0.825 1
vt 0.8 1
vt 0 0.5833334
vt 0.25 0.8333333
vt 0.275 0.8333333
vt 0.275 0.8611111
vt 0.25 0.8611111
vt 0.1 0.5555556
vt 0.1 0.5833334
vt 0.025 0.4444444
vt 0.05 0.4444444
vt 0.05 0.4722222
vt 0.025 0.4722222
vt 0.1 0.6111111
vt 0.075 0.9722222
vt 0.1 0.9722222
vt 0.1 1
vt 0.075 1
vt 0.15 0.5
vt 0.175 0.5
vt 0.175 0.5277778
vt 0.15 0.5277778
vt 0.125 0.5
vt 0.125 0.5277778
vt 0.175 0.4722222
vt 0.2 0.4722222
vt 0.2 0.5
vt 0.15 0.4722222
vt 0.075 0.4444444
vt 0.1 0.4444444
vt 0.1 0.4722222
vt 0.075 0.4722222
vt 0.125 0.4444444
vt 0.15 0.4444444
vt 0.125 0.4722222
vt 0.2 0.5277778
vt 0.2 0.5555556
vt 0.175 0.5555556

# Normal
vn 0 0 -1

# Mesh description
g Map-2-1_mesh_0005

# Faces
f 1/1/1 2/2/1 3/3/1 4/4/1
f 5/1/1 6/2/1 7/3/1 8/4/1
f 9/1/1 10/2/1 11/3/1 12/4/1
f 13/5/1 14/6/1 15/7/1 16/8/1
f 17/3/1 18/9/1 19/10/1 20/11/1
f 21/9/1 22/3/1 23/11/1 24/10/1
f 25/3/1 26/9/1 27/10/1 28/11/1
f 29/1/1 30/2/1 31/3/1 32/4/1
f 33/4/1 34/3/1 35/11/1 36/12/1
f 37/13/1 38/14/1 39/15/1 40/16/1
f 41/15/1 42/17/1 43/6/1 44/5/1
f 45/15/1 46/17/1 47/6/1 48/5/1
f 49/16/1 50/15/1 51/5/1 52/18/1
f 53/13/1 54/14/1 55/15/1 56/16/1
f 57/19/1 58/13/1 59/16/1 60/20/1
f 61/5/1 62/6/1 63/7/1 64/8/1
f 65/5/1 66/6/1 67/7/1 68/8/1
f 69/21/1 70/22/1 71/23/1 72/24/1
f 73/18/1 74/5/1 75/8/1 76/2/1
f 77/20/1 78/16/1 79/18/1 80/25/1
f 81/13/1 82/14/1 83/15/1 84/16/1
f 85/2/1 86/8/1 87/9/1 88/3/1
f 89/20/1 90/16/1 91/18/1 92/25/1
f 93/5/1 94/6/1 95/7/1 96/8/1
f 97/18/1 98/5/1 99/8/1 100/2/1
f 101/25/1 102/18/1 103/2/1 104/1/1
f 105/26/1 106/27/1 107/28/1 108/29/1
f 109/13/1 110/14/1 111/15/1 112/16/1
f 113/2/1 114/8/1 115/9/1 116/3/1
f 117/5/1 118/6/1 119/7/1 120/8/1
f 121/13/1 122/14/1 123/15/1 124/16/1
f 125/19/1 126/13/1 127/16/1 128/20/1
f 129/17/1 130/30/1 131/31/1 132/6/1
f 133/19/1 134/13/1 135/16/1 136/20/1
f 137/13/1 138/14/1 139/15/1 140/16/1
f 141/15/1 142/17/1 143/6/1 144/5/1
f 145/19/1 146/13/1 147/16/1 148/20/1
f 149/5/1 150/6/1 151/7/1 152/8/1
f 153/1/1 154/2/1 155/3/1 156/4/1
f 157/26/1 158/27/1 159/28/1 160/29/1
f 161/32/1 162/33/1 163/34/1 164/35/1
f 165/6/1 166/31/1 167/36/1 168/7/1
f 169/5/1 170/6/1 171/7/1 172/8/1
f 173/5/1 174/6/1 175/7/1 176/8/1
f 177/5/1 178/6/1 179/7/1 180/8/1
f 181/6/1 182/31/1 183/36/1 184/7/1
f 185/37/1 186/38/1 187/39/1 188/40/1
f 189/25/1 190/18/1 191/2/1 192/1/1
f 193/26/1 194/27/1 195/28/1 196/29/1
f 197/41/1 198/42/1 199/43/1 200/44/1
f 201/5/1 202/6/1 203/7/1 204/8/1
f 205/20/1 206/16/1 207/18/1 208/25/1
f 209/41/1 210/42/1 211/43/1 212/44/1
f 213/45/1 214/41/1 215/44/1 216/46/1
f 217/47/1 218/48/1 219/49/1 220/42/1
f 221/6/1 222/31/1 223/36/1 224/7/1
f 225/37/1 226/38/1 227/39/1 228/40/1
f 229/47/1 230/48/1 231/49/1 232/42/1
f 233/50/1 234/47/1 235/42/1 236/41/1
f 237/47/1 238/48/1 239/49/1 240/42/1
f 241/5/1 242/6/1 243/7/1 244/8/1
f 245/5/1 246/6/1 247/7/1 248/8/1
f 249/5/1 250/6/1 251/7/1 252/8/1
f 253/25/1 254/18/1 255/2/1 256/1/1
f 257/47/1 258/48/1 259/49/1 260/42/1
f 261/50/1 262/47/1 263/42/1 264/41/1
f 265/47/1 266/48/1 267/49/1 268/42/1
f 269/41/1 270/42/1 271/43/1 272/44/1
f 273/45/1 274/41/1 275/44/1 276/46/1
f 277/41/1 278/42/1 279/43/1 280/44/1
f 281/45/1 282/41/1 283/44/1 284/46/1
f 285/41/1 286/42/1 287/43/1 288/44/1
f 289/45/1 290/41/1 291/44/1 292/46/1
f 293/41/1 294/42/1 295/43/1 296/44/1
f 297/45/1 298/41/1 299/44/1 300/46/1
f 301/41/1 302/42/1 303/43/1 304/44/1
f 305/45/1 306/41/1 307/44/1 308/46/1
f 309/41/1 310/42/1 311/43/1 312/44/1
f 313/45/1 314/41/1 315/44/1 316/46/1
f 317/41/1 318/42/1 319/43/1 320/44/1
f 321/45/1 322/41/1 323/44/1 324/46/1
f 325/41/1 326/42/1 327/43/1 328/44/1
f 329/45/1 330/41/1 331/44/1 332/46/1
f 333/41/1 334/42/1 335/43/1 336/44/1
f 337/45/1 338/41/1 339/44/1 340/46/1
f 341/47/1 342/48/1 343/49/1 344/42/1
f 345/51/1 346/52/1 347/53/1 348/54/1
f 349/55/1 350/56/1 351/50/1 352/57/1
f 353/55/1 354/56/1 355/50/1 356/57/1
f 357/55/1 358/56/1 359/50/1 360/57/1
f 361/55/1 362/56/1 363/50/1 364/57/1
f 365/55/1 366/56/1 367/50/1 368/57/1
f 369/43/1 370/58/1 371/59/1 372/60/1

