# Tiled2Unity generated file. Do not modify by hand.
# Wavefront file for 'Map-2-1_mesh_0003.obj'

# Vertices (Count = 740)
v -8 -19 0
v -9 -19 0
v -9 -18 0
v -8 -18 0
v -7 -19 0
v -8 -19 0
v -8 -18 0
v -7 -18 0
v -6 -19 0
v -7 -19 0
v -7 -18 0
v -6 -18 0
v -20 -17 0
v -21 -17 0
v -21 -16 0
v -20 -16 0
v -19 -17 0
v -20 -17 0
v -20 -16 0
v -19 -16 0
v -18 -17 0
v -19 -17 0
v -19 -16 0
v -18 -16 0
v -17 -17 0
v -18 -17 0
v -18 -16 0
v -17 -16 0
v -16 -17 0
v -17 -17 0
v -17 -16 0
v -16 -16 0
v -12 -17 0
v -13 -17 0
v -13 -16 0
v -12 -16 0
v -11 -17 0
v -12 -17 0
v -12 -16 0
v -11 -16 0
v -10 -17 0
v -11 -17 0
v -11 -16 0
v -10 -16 0
v -9 -17 0
v -10 -17 0
v -10 -16 0
v -9 -16 0
v -25 -16 0
v -26 -16 0
v -26 -15 0
v -25 -15 0
v -24 -16 0
v -25 -16 0
v -25 -15 0
v -24 -15 0
v -23 -16 0
v -24 -16 0
v -24 -15 0
v -23 -15 0
v -22 -16 0
v -23 -16 0
v -23 -15 0
v -22 -15 0
v -21 -16 0
v -22 -16 0
v -22 -15 0
v -21 -15 0
v -20 -16 0
v -21 -16 0
v -21 -15 0
v -20 -15 0
v -19 -16 0
v -20 -16 0
v -20 -15 0
v -19 -15 0
v -18 -16 0
v -19 -16 0
v -19 -15 0
v -18 -15 0
v -17 -16 0
v -18 -16 0
v -18 -15 0
v -17 -15 0
v -16 -16 0
v -17 -16 0
v -17 -15 0
v -16 -15 0
v -12 -16 0
v -13 -16 0
v -13 -15 0
v -12 -15 0
v -11 -16 0
v -12 -16 0
v -12 -15 0
v -11 -15 0
v -10 -16 0
v -11 -16 0
v -11 -15 0
v -10 -15 0
v -9 -16 0
v -10 -16 0
v -10 -15 0
v -9 -15 0
v -25 -15 0
v -26 -15 0
v -26 -14 0
v -25 -14 0
v -24 -15 0
v -25 -15 0
v -25 -14 0
v -24 -14 0
v -23 -15 0
v -24 -15 0
v -24 -14 0
v -23 -14 0
v -22 -15 0
v -23 -15 0
v -23 -14 0
v -22 -14 0
v -21 -15 0
v -22 -15 0
v -22 -14 0
v -21 -14 0
v -20 -15 0
v -21 -15 0
v -21 -14 0
v -20 -14 0
v -19 -15 0
v -20 -15 0
v -20 -14 0
v -19 -14 0
v -18 -15 0
v -19 -15 0
v -19 -14 0
v -18 -14 0
v -17 -15 0
v -18 -15 0
v -18 -14 0
v -17 -14 0
v -16 -15 0
v -17 -15 0
v -17 -14 0
v -16 -14 0
v -12 -15 0
v -13 -15 0
v -13 -14 0
v -12 -14 0
v -11 -15 0
v -12 -15 0
v -12 -14 0
v -11 -14 0
v -10 -15 0
v -11 -15 0
v -11 -14 0
v -10 -14 0
v -9 -15 0
v -10 -15 0
v -10 -14 0
v -9 -14 0
v -25 -14 0
v -26 -14 0
v -26 -13 0
v -25 -13 0
v -24 -14 0
v -25 -14 0
v -25 -13 0
v -24 -13 0
v -23 -14 0
v -24 -14 0
v -24 -13 0
v -23 -13 0
v -22 -14 0
v -23 -14 0
v -23 -13 0
v -22 -13 0
v -21 -14 0
v -22 -14 0
v -22 -13 0
v -21 -13 0
v -20 -14 0
v -21 -14 0
v -21 -13 0
v -20 -13 0
v -19 -14 0
v -20 -14 0
v -20 -13 0
v -19 -13 0
v -18 -14 0
v -19 -14 0
v -19 -13 0
v -18 -13 0
v -17 -14 0
v -18 -14 0
v -18 -13 0
v -17 -13 0
v -16 -14 0
v -17 -14 0
v -17 -13 0
v -16 -13 0
v -25 -13 0
v -26 -13 0
v -26 -12 0
v -25 -12 0
v -24 -13 0
v -25 -13 0
v -25 -12 0
v -24 -12 0
v -23 -13 0
v -24 -13 0
v -24 -12 0
v -23 -12 0
v -22 -13 0
v -23 -13 0
v -23 -12 0
v -22 -12 0
v -21 -13 0
v -22 -13 0
v -22 -12 0
v -21 -12 0
v -20 -13 0
v -21 -13 0
v -21 -12 0
v -20 -12 0
v -19 -13 0
v -20 -13 0
v -20 -12 0
v -19 -12 0
v -18 -13 0
v -19 -13 0
v -19 -12 0
v -18 -12 0
v -17 -13 0
v -18 -13 0
v -18 -12 0
v -17 -12 0
v -16 -13 0
v -17 -13 0
v -17 -12 0
v -16 -12 0
v -25 -12 0
v -26 -12 0
v -26 -11 0
v -25 -11 0
v -24 -12 0
v -25 -12 0
v -25 -11 0
v -24 -11 0
v -23 -12 0
v -24 -12 0
v -24 -11 0
v -23 -11 0
v -22 -12 0
v -23 -12 0
v -23 -11 0
v -22 -11 0
v -21 -12 0
v -22 -12 0
v -22 -11 0
v -21 -11 0
v -13 -11 0
v -14 -11 0
v -14 -10 0
v -13 -10 0
v -12 -11 0
v -13 -11 0
v -13 -10 0
v -12 -10 0
v -11 -11 0
v -12 -11 0
v -12 -10 0
v -11 -10 0
v -10 -11 0
v -11 -11 0
v -11 -10 0
v -10 -10 0
v -9 -11 0
v -10 -11 0
v -10 -10 0
v -9 -10 0
v -8 -11 0
v -9 -11 0
v -9 -10 0
v -8 -10 0
v -7 -11 0
v -8 -11 0
v -8 -10 0
v -7 -10 0
v -13 -10 0
v -14 -10 0
v -14 -9 0
v -13 -9 0
v -12 -10 0
v -13 -10 0
v -13 -9 0
v -12 -9 0
v -11 -10 0
v -12 -10 0
v -12 -9 0
v -11 -9 0
v -10 -10 0
v -11 -10 0
v -11 -9 0
v -10 -9 0
v -9 -10 0
v -10 -10 0
v -10 -9 0
v -9 -9 0
v -8 -10 0
v -9 -10 0
v -9 -9 0
v -8 -9 0
v -7 -10 0
v -8 -10 0
v -8 -9 0
v -7 -9 0
v -13 -9 0
v -14 -9 0
v -14 -8 0
v -13 -8 0
v -12 -9 0
v -13 -9 0
v -13 -8 0
v -12 -8 0
v -11 -9 0
v -12 -9 0
v -12 -8 0
v -11 -8 0
v -10 -9 0
v -11 -9 0
v -11 -8 0
v -10 -8 0
v -9 -9 0
v -10 -9 0
v -10 -8 0
v -9 -8 0
v -8 -9 0
v -9 -9 0
v -9 -8 0
v -8 -8 0
v -7 -9 0
v -8 -9 0
v -8 -8 0
v -7 -8 0
v -22 -8 0
v -23 -8 0
v -23 -7 0
v -22 -7 0
v -21 -8 0
v -22 -8 0
v -22 -7 0
v -21 -7 0
v -20 -8 0
v -21 -8 0
v -21 -7 0
v -20 -7 0
v -19 -8 0
v -20 -8 0
v -20 -7 0
v -19 -7 0
v -18 -8 0
v -19 -8 0
v -19 -7 0
v -18 -7 0
v -13 -8 0
v -14 -8 0
v -14 -7 0
v -13 -7 0
v -12 -8 0
v -13 -8 0
v -13 -7 0
v -12 -7 0
v -11 -8 0
v -12 -8 0
v -12 -7 0
v -11 -7 0
v -10 -8 0
v -11 -8 0
v -11 -7 0
v -10 -7 0
v -9 -8 0
v -10 -8 0
v -10 -7 0
v -9 -7 0
v -8 -8 0
v -9 -8 0
v -9 -7 0
v -8 -7 0
v -22 -7 0
v -23 -7 0
v -23 -6 0
v -22 -6 0
v -21 -7 0
v -22 -7 0
v -22 -6 0
v -21 -6 0
v -20 -7 0
v -21 -7 0
v -21 -6 0
v -20 -6 0
v -19 -7 0
v -20 -7 0
v -20 -6 0
v -19 -6 0
v -18 -7 0
v -19 -7 0
v -19 -6 0
v -18 -6 0
v -13 -7 0
v -14 -7 0
v -14 -6 0
v -13 -6 0
v -12 -7 0
v -13 -7 0
v -13 -6 0
v -12 -6 0
v -11 -7 0
v -12 -7 0
v -12 -6 0
v -11 -6 0
v -10 -7 0
v -11 -7 0
v -11 -6 0
v -10 -6 0
v -9 -7 0
v -10 -7 0
v -10 -6 0
v -9 -6 0
v -8 -7 0
v -9 -7 0
v -9 -6 0
v -8 -6 0
v -22 -6 0
v -23 -6 0
v -23 -5 0
v -22 -5 0
v -21 -6 0
v -22 -6 0
v -22 -5 0
v -21 -5 0
v -20 -6 0
v -21 -6 0
v -21 -5 0
v -20 -5 0
v -19 -6 0
v -20 -6 0
v -20 -5 0
v -19 -5 0
v -18 -6 0
v -19 -6 0
v -19 -5 0
v -18 -5 0
v -13 -6 0
v -14 -6 0
v -14 -5 0
v -13 -5 0
v -12 -6 0
v -13 -6 0
v -13 -5 0
v -12 -5 0
v -11 -6 0
v -12 -6 0
v -12 -5 0
v -11 -5 0
v -10 -6 0
v -11 -6 0
v -11 -5 0
v -10 -5 0
v -9 -6 0
v -10 -6 0
v -10 -5 0
v -9 -5 0
v -8 -6 0
v -9 -6 0
v -9 -5 0
v -8 -5 0
v -22 -5 0
v -23 -5 0
v -23 -4 0
v -22 -4 0
v -21 -5 0
v -22 -5 0
v -22 -4 0
v -21 -4 0
v -20 -5 0
v -21 -5 0
v -21 -4 0
v -20 -4 0
v -19 -5 0
v -20 -5 0
v -20 -4 0
v -19 -4 0
v -18 -5 0
v -19 -5 0
v -19 -4 0
v -18 -4 0
v -13 -5 0
v -14 -5 0
v -14 -4 0
v -13 -4 0
v -12 -5 0
v -13 -5 0
v -13 -4 0
v -12 -4 0
v -11 -5 0
v -12 -5 0
v -12 -4 0
v -11 -4 0
v -10 -5 0
v -11 -5 0
v -11 -4 0
v -10 -4 0
v -9 -5 0
v -10 -5 0
v -10 -4 0
v -9 -4 0
v -8 -5 0
v -9 -5 0
v -9 -4 0
v -8 -4 0
v -22 -4 0
v -23 -4 0
v -23 -3 0
v -22 -3 0
v -21 -4 0
v -22 -4 0
v -22 -3 0
v -21 -3 0
v -20 -4 0
v -21 -4 0
v -21 -3 0
v -20 -3 0
v -19 -4 0
v -20 -4 0
v -20 -3 0
v -19 -3 0
v -18 -4 0
v -19 -4 0
v -19 -3 0
v -18 -3 0
v -15 -4 0
v -16 -4 0
v -16 -3 0
v -15 -3 0
v -14 -4 0
v -15 -4 0
v -15 -3 0
v -14 -3 0
v -13 -4 0
v -14 -4 0
v -14 -3 0
v -13 -3 0
v -12 -4 0
v -13 -4 0
v -13 -3 0
v -12 -3 0
v -11 -4 0
v -12 -4 0
v -12 -3 0
v -11 -3 0
v -10 -4 0
v -11 -4 0
v -11 -3 0
v -10 -3 0
v -9 -4 0
v -10 -4 0
v -10 -3 0
v -9 -3 0
v -8 -4 0
v -9 -4 0
v -9 -3 0
v -8 -3 0
v -25 -3 0
v -26 -3 0
v -26 -2 0
v -25 -2 0
v -24 -3 0
v -25 -3 0
v -25 -2 0
v -24 -2 0
v -23 -3 0
v -24 -3 0
v -24 -2 0
v -23 -2 0
v -22 -3 0
v -23 -3 0
v -23 -2 0
v -22 -2 0
v -21 -3 0
v -22 -3 0
v -22 -2 0
v -21 -2 0
v -20 -3 0
v -21 -3 0
v -21 -2 0
v -20 -2 0
v -19 -3 0
v -20 -3 0
v -20 -2 0
v -19 -2 0
v -18 -3 0
v -19 -3 0
v -19 -2 0
v -18 -2 0
v -13 -3 0
v -14 -3 0
v -14 -2 0
v -13 -2 0
v -12 -3 0
v -13 -3 0
v -13 -2 0
v -12 -2 0
v -11 -3 0
v -12 -3 0
v -12 -2 0
v -11 -2 0
v -10 -3 0
v -11 -3 0
v -11 -2 0
v -10 -2 0
v -9 -3 0
v -10 -3 0
v -10 -2 0
v -9 -2 0
v -8 -3 0
v -9 -3 0
v -9 -2 0
v -8 -2 0
v -25 -2 0
v -26 -2 0
v -26 -1 0
v -25 -1 0
v -24 -2 0
v -25 -2 0
v -25 -1 0
v -24 -1 0
v -23 -2 0
v -24 -2 0
v -24 -1 0
v -23 -1 0
v -22 -2 0
v -23 -2 0
v -23 -1 0
v -22 -1 0
v -21 -2 0
v -22 -2 0
v -22 -1 0
v -21 -1 0
v -20 -2 0
v -21 -2 0
v -21 -1 0
v -20 -1 0
v -19 -2 0
v -20 -2 0
v -20 -1 0
v -19 -1 0
v -18 -2 0
v -19 -2 0
v -19 -1 0
v -18 -1 0
v -13 -2 0
v -14 -2 0
v -14 -1 0
v -13 -1 0
v -12 -2 0
v -13 -2 0
v -13 -1 0
v -12 -1 0
v -11 -2 0
v -12 -2 0
v -12 -1 0
v -11 -1 0
v -10 -2 0
v -11 -2 0
v -11 -1 0
v -10 -1 0
v -9 -2 0
v -10 -2 0
v -10 -1 0
v -9 -1 0
v -8 -2 0
v -9 -2 0
v -9 -1 0
v -8 -1 0
v -25 -1 0
v -26 -1 0
v -26 0 0
v -25 0 0
v -24 -1 0
v -25 -1 0
v -25 0 0
v -24 0 0
v -23 -1 0
v -24 -1 0
v -24 0 0
v -23 0 0
v -22 -1 0
v -23 -1 0
v -23 0 0
v -22 0 0
v -21 -1 0
v -22 -1 0
v -22 0 0
v -21 0 0
v -20 -1 0
v -21 -1 0
v -21 0 0
v -20 0 0
v -19 -1 0
v -20 -1 0
v -20 0 0
v -19 0 0
v -18 -1 0
v -19 -1 0
v -19 0 0
v -18 0 0
v -13 -1 0
v -14 -1 0
v -14 0 0
v -13 0 0
v -12 -1 0
v -13 -1 0
v -13 0 0
v -12 0 0
v -11 -1 0
v -12 -1 0
v -12 0 0
v -11 0 0
v -10 -1 0
v -11 -1 0
v -11 0 0
v -10 0 0
v -9 -1 0
v -10 -1 0
v -10 0 0
v -9 0 0
v -8 -1 0
v -9 -1 0
v -9 0 0
v -8 0 0

# Texture cooridinates (Count = 61)
vt 0.025 0.08333331
vt 0.05 0.08333331
vt 0.05 0.1111111
vt 0.025 0.1111111
vt 0.05 0.1388889
vt 0.025 0.1388889
vt 0 0.08333331
vt 0 0.1111111
vt 0.15 0.6666666
vt 0.175 0.6666666
vt 0.175 0.6944444
vt 0.15 0.6944444
vt 0.125 0.6666666
vt 0.125 0.6944444
vt 0.1 0.6666666
vt 0.1 0.6944444
vt 0.175 0.7222222
vt 0.15 0.7222222
vt 0.2 0.6944444
vt 0.225 0.6944444
vt 0.225 0.7222222
vt 0.2 0.7222222
vt 0.125 0.7222222
vt 0.1 0.7222222
vt 0.2 0.75
vt 0.175 0.75
vt 0.225 0.75
vt 0.025 0.6944444
vt 0.025 0.6666666
vt 0.05 0.6666666
vt 0.05 0.6944444
vt 0 0.9722222
vt 0.025 0.9722222
vt 0.025 1
vt 0 1
vt 0.15 0.75
vt 0.125 0.75
vt 0.4 0.1111111
vt 0.425 0.1111111
vt 0.425 0.1388889
vt 0.4 0.1388889
vt 0.375 0.1111111
vt 0.375 0.1388889
vt 0.35 0.1111111
vt 0.35 0.1388889
vt 0.425 0.1666667
vt 0.4 0.1666667
vt 0.375 0.1666667
vt 0.35 0.1666667
vt 0.425 0.1944444
vt 0.4 0.1944444
vt 0.375 0.1944444
vt 0.35 0.1944444
vt 0.8 0.9722222
vt 0.825 0.9722222
vt 0.825 1
vt 0.8 1
vt 0.075 0.9722222
vt 0.1 0.9722222
vt 0.1 1
vt 0.075 1

# Normal
vn 0 0 -1

# Mesh description
g Map-2-1_mesh_0003

# Faces
f 1/1/1 2/2/1 3/3/1 4/4/1
f 5/4/1 6/3/1 7/5/1 8/6/1
f 9/7/1 10/1/1 11/4/1 12/8/1
f 13/9/1 14/10/1 15/11/1 16/12/1
f 17/13/1 18/9/1 19/12/1 20/14/1
f 21/13/1 22/9/1 23/12/1 24/14/1
f 25/13/1 26/9/1 27/12/1 28/14/1
f 29/15/1 30/13/1 31/14/1 32/16/1
f 33/9/1 34/10/1 35/11/1 36/12/1
f 37/13/1 38/9/1 39/12/1 40/14/1
f 41/13/1 42/9/1 43/12/1 44/14/1
f 45/15/1 46/13/1 47/14/1 48/16/1
f 49/13/1 50/9/1 51/12/1 52/14/1
f 53/13/1 54/9/1 55/12/1 56/14/1
f 57/13/1 58/9/1 59/12/1 60/14/1
f 61/13/1 62/9/1 63/12/1 64/14/1
f 65/15/1 66/13/1 67/14/1 68/16/1
f 69/12/1 70/11/1 71/17/1 72/18/1
f 73/19/1 74/20/1 75/21/1 76/22/1
f 77/19/1 78/20/1 79/21/1 80/22/1
f 81/19/1 82/20/1 83/21/1 84/22/1
f 85/16/1 86/14/1 87/23/1 88/24/1
f 89/12/1 90/11/1 91/17/1 92/18/1
f 93/17/1 94/22/1 95/25/1 96/26/1
f 97/22/1 98/21/1 99/27/1 100/25/1
f 101/16/1 102/14/1 103/23/1 104/24/1
f 105/22/1 106/21/1 107/27/1 108/25/1
f 109/19/1 110/20/1 111/21/1 112/22/1
f 113/19/1 114/20/1 115/21/1 116/22/1
f 117/19/1 118/20/1 119/21/1 120/22/1
f 121/28/1 122/29/1 123/30/1 124/31/1
f 125/22/1 126/21/1 127/27/1 128/25/1
f 129/19/1 130/20/1 131/21/1 132/22/1
f 133/19/1 134/20/1 135/21/1 136/22/1
f 137/19/1 138/20/1 139/21/1 140/22/1
f 141/16/1 142/14/1 143/23/1 144/24/1
f 145/12/1 146/9/1 147/10/1 148/11/1
f 149/12/1 150/14/1 151/13/1 152/9/1
f 153/12/1 154/14/1 155/13/1 156/9/1
f 157/11/1 158/12/1 159/9/1 160/10/1
f 161/19/1 162/20/1 163/21/1 164/22/1
f 165/19/1 166/20/1 167/21/1 168/22/1
f 169/22/1 170/21/1 171/27/1 172/25/1
f 173/22/1 174/21/1 175/27/1 176/25/1
f 177/28/1 178/29/1 179/30/1 180/31/1
f 181/12/1 182/11/1 183/17/1 184/18/1
f 185/19/1 186/20/1 187/21/1 188/22/1
f 189/22/1 190/21/1 191/27/1 192/25/1
f 193/22/1 194/21/1 195/27/1 196/25/1
f 197/16/1 198/14/1 199/23/1 200/24/1
f 201/32/1 202/33/1 203/34/1 204/35/1
f 205/32/1 206/33/1 207/34/1 208/35/1
f 209/19/1 210/20/1 211/21/1 212/22/1
f 213/32/1 214/33/1 215/34/1 216/35/1
f 217/28/1 218/29/1 219/30/1 220/31/1
f 221/12/1 222/9/1 223/10/1 224/11/1
f 225/12/1 226/14/1 227/13/1 228/9/1
f 229/12/1 230/14/1 231/13/1 232/9/1
f 233/12/1 234/14/1 235/13/1 236/9/1
f 237/11/1 238/12/1 239/9/1 240/10/1
f 241/12/1 242/14/1 243/13/1 244/9/1
f 245/12/1 246/14/1 247/13/1 248/9/1
f 249/12/1 250/14/1 251/13/1 252/9/1
f 253/12/1 254/14/1 255/13/1 256/9/1
f 257/11/1 258/12/1 259/9/1 260/10/1
f 261/9/1 262/10/1 263/11/1 264/12/1
f 265/13/1 266/9/1 267/12/1 268/14/1
f 269/13/1 270/9/1 271/12/1 272/14/1
f 273/13/1 274/9/1 275/12/1 276/14/1
f 277/13/1 278/9/1 279/12/1 280/14/1
f 281/13/1 282/9/1 283/12/1 284/14/1
f 285/15/1 286/13/1 287/14/1 288/16/1
f 289/14/1 290/13/1 291/9/1 292/12/1
f 293/23/1 294/18/1 295/36/1 296/37/1
f 297/19/1 298/20/1 299/21/1 300/22/1
f 301/23/1 302/18/1 303/36/1 304/37/1
f 305/23/1 306/18/1 307/36/1 308/37/1
f 309/19/1 310/20/1 311/21/1 312/22/1
f 313/6/1 314/4/1 315/3/1 316/5/1
f 317/14/1 318/13/1 319/9/1 320/12/1
f 321/23/1 322/18/1 323/36/1 324/37/1
f 325/19/1 326/20/1 327/21/1 328/22/1
f 329/23/1 330/18/1 331/36/1 332/37/1
f 333/23/1 334/18/1 335/36/1 336/37/1
f 337/19/1 338/20/1 339/21/1 340/22/1
f 341/11/1 342/12/1 343/9/1 344/10/1
f 345/9/1 346/10/1 347/11/1 348/12/1
f 349/13/1 350/9/1 351/12/1 352/14/1
f 353/13/1 354/9/1 355/12/1 356/14/1
f 357/13/1 358/9/1 359/12/1 360/14/1
f 361/15/1 362/13/1 363/14/1 364/16/1
f 365/14/1 366/13/1 367/9/1 368/12/1
f 369/23/1 370/18/1 371/36/1 372/37/1
f 373/23/1 374/18/1 375/36/1 376/37/1
f 377/19/1 378/20/1 379/21/1 380/22/1
f 381/22/1 382/21/1 383/27/1 384/25/1
f 385/16/1 386/14/1 387/23/1 388/24/1
f 389/14/1 390/13/1 391/9/1 392/12/1
f 393/38/1 394/39/1 395/40/1 396/41/1
f 397/42/1 398/38/1 399/41/1 400/43/1
f 401/44/1 402/42/1 403/43/1 404/45/1
f 405/16/1 406/14/1 407/23/1 408/24/1
f 409/14/1 410/13/1 411/9/1 412/12/1
f 413/32/1 414/33/1 415/34/1 416/35/1
f 417/23/1 418/18/1 419/36/1 420/37/1
f 421/19/1 422/20/1 423/21/1 424/22/1
f 425/22/1 426/21/1 427/27/1 428/25/1
f 429/16/1 430/14/1 431/23/1 432/24/1
f 433/14/1 434/13/1 435/9/1 436/12/1
f 437/41/1 438/40/1 439/46/1 440/47/1
f 441/43/1 442/41/1 443/47/1 444/48/1
f 445/45/1 446/43/1 447/48/1 448/49/1
f 449/16/1 450/14/1 451/23/1 452/24/1
f 453/14/1 454/13/1 455/9/1 456/12/1
f 457/32/1 458/33/1 459/34/1 460/35/1
f 461/19/1 462/20/1 463/21/1 464/22/1
f 465/32/1 466/33/1 467/34/1 468/35/1
f 469/22/1 470/21/1 471/27/1 472/25/1
f 473/16/1 474/14/1 475/23/1 476/24/1
f 477/14/1 478/13/1 479/9/1 480/12/1
f 481/47/1 482/46/1 483/50/1 484/51/1
f 485/48/1 486/47/1 487/51/1 488/52/1
f 489/49/1 490/48/1 491/52/1 492/53/1
f 493/16/1 494/14/1 495/23/1 496/24/1
f 497/14/1 498/13/1 499/9/1 500/12/1
f 501/22/1 502/21/1 503/27/1 504/25/1
f 505/19/1 506/20/1 507/21/1 508/22/1
f 509/19/1 510/20/1 511/21/1 512/22/1
f 513/23/1 514/18/1 515/36/1 516/37/1
f 517/16/1 518/14/1 519/23/1 520/24/1
f 521/14/1 522/13/1 523/9/1 524/12/1
f 525/32/1 526/33/1 527/34/1 528/35/1
f 529/22/1 530/21/1 531/27/1 532/25/1
f 533/23/1 534/18/1 535/36/1 536/37/1
f 537/16/1 538/14/1 539/23/1 540/24/1
f 541/54/1 542/55/1 543/56/1 544/57/1
f 545/58/1 546/59/1 547/60/1 548/61/1
f 549/14/1 550/13/1 551/9/1 552/12/1
f 553/22/1 554/21/1 555/27/1 556/25/1
f 557/32/1 558/33/1 559/34/1 560/35/1
f 561/17/1 562/22/1 563/25/1 564/26/1
f 565/19/1 566/20/1 567/21/1 568/22/1
f 569/16/1 570/14/1 571/23/1 572/24/1
f 573/13/1 574/9/1 575/12/1 576/14/1
f 577/13/1 578/9/1 579/12/1 580/14/1
f 581/13/1 582/9/1 583/12/1 584/14/1
f 585/17/1 586/22/1 587/25/1 588/26/1
f 589/19/1 590/20/1 591/21/1 592/22/1
f 593/23/1 594/18/1 595/36/1 596/37/1
f 597/22/1 598/21/1 599/27/1 600/25/1
f 601/16/1 602/14/1 603/23/1 604/24/1
f 605/14/1 606/13/1 607/9/1 608/12/1
f 609/23/1 610/18/1 611/36/1 612/37/1
f 613/19/1 614/20/1 615/21/1 616/22/1
f 617/17/1 618/22/1 619/25/1 620/26/1
f 621/19/1 622/20/1 623/21/1 624/22/1
f 625/16/1 626/14/1 627/23/1 628/24/1
f 629/17/1 630/22/1 631/25/1 632/26/1
f 633/11/1 634/19/1 635/22/1 636/17/1
f 637/23/1 638/18/1 639/36/1 640/37/1
f 641/19/1 642/20/1 643/21/1 644/22/1
f 645/17/1 646/22/1 647/25/1 648/26/1
f 649/22/1 650/21/1 651/27/1 652/25/1
f 653/19/1 654/20/1 655/21/1 656/22/1
f 657/16/1 658/14/1 659/23/1 660/24/1
f 661/14/1 662/13/1 663/9/1 664/12/1
f 665/19/1 666/20/1 667/21/1 668/22/1
f 669/17/1 670/22/1 671/25/1 672/26/1
f 673/17/1 674/22/1 675/25/1 676/26/1
f 677/19/1 678/20/1 679/21/1 680/22/1
f 681/16/1 682/14/1 683/23/1 684/24/1
f 685/23/1 686/18/1 687/36/1 688/37/1
f 689/17/1 690/22/1 691/25/1 692/26/1
f 693/19/1 694/20/1 695/21/1 696/22/1
f 697/19/1 698/20/1 699/21/1 700/22/1
f 701/17/1 702/22/1 703/25/1 704/26/1
f 705/17/1 706/22/1 707/25/1 708/26/1
f 709/22/1 710/21/1 711/27/1 712/25/1
f 713/16/1 714/14/1 715/23/1 716/24/1
f 717/14/1 718/13/1 719/9/1 720/12/1
f 721/17/1 722/22/1 723/25/1 724/26/1
f 725/17/1 726/22/1 727/25/1 728/26/1
f 729/17/1 730/22/1 731/25/1 732/26/1
f 733/19/1 734/20/1 735/21/1 736/22/1
f 737/16/1 738/14/1 739/23/1 740/24/1

