# Tiled2Unity generated file. Do not modify by hand.
# Wavefront file for 'Map-2-1_mesh_0009.obj'

# Vertices (Count = 112)
v -15 -17 0
v -16 -17 0
v -16 -16 0
v -15 -16 0
v -14 -17 0
v -15 -17 0
v -15 -16 0
v -14 -16 0
v -13 -17 0
v -14 -17 0
v -14 -16 0
v -13 -16 0
v -12 -17 0
v -13 -17 0
v -13 -16 0
v -12 -16 0
v -16 -16 0
v -17 -16 0
v -17 -15 0
v -16 -15 0
v -15 -16 0
v -16 -16 0
v -16 -15 0
v -15 -15 0
v -14 -16 0
v -15 -16 0
v -15 -15 0
v -14 -15 0
v -13 -16 0
v -14 -16 0
v -14 -15 0
v -13 -15 0
v -15 -15 0
v -16 -15 0
v -16 -14 0
v -15 -14 0
v -14 -15 0
v -15 -15 0
v -15 -14 0
v -14 -14 0
v -13 -15 0
v -14 -15 0
v -14 -14 0
v -13 -14 0
v -11 -15 0
v -12 -15 0
v -12 -14 0
v -11 -14 0
v -12 -14 0
v -13 -14 0
v -13 -13 0
v -12 -13 0
v -11 -14 0
v -12 -14 0
v -12 -13 0
v -11 -13 0
v -10 -14 0
v -11 -14 0
v -11 -13 0
v -10 -13 0
v -12 -13 0
v -13 -13 0
v -13 -12 0
v -12 -12 0
v -11 -13 0
v -12 -13 0
v -12 -12 0
v -11 -12 0
v -10 -13 0
v -11 -13 0
v -11 -12 0
v -10 -12 0
v -3 -12 0
v -4 -12 0
v -4 -11 0
v -3 -11 0
v -6 -11 0
v -7 -11 0
v -7 -10 0
v -6 -10 0
v -5 -11 0
v -6 -11 0
v -6 -10 0
v -5 -10 0
v -6 -10 0
v -7 -10 0
v -7 -9 0
v -6 -9 0
v -5 -10 0
v -6 -10 0
v -6 -9 0
v -5 -9 0
v -6 -9 0
v -7 -9 0
v -7 -8 0
v -6 -8 0
v -5 -9 0
v -6 -9 0
v -6 -8 0
v -5 -8 0
v -2 -7 0
v -3 -7 0
v -3 -6 0
v -2 -6 0
v -4 -6 0
v -5 -6 0
v -5 -5 0
v -4 -5 0
v -4 -5 0
v -5 -5 0
v -5 -4 0
v -4 -4 0

# Texture cooridinates (Count = 46)
vt 0.225 0.75
vt 0.25 0.75
vt 0.25 0.7777778
vt 0.225 0.7777778
vt 0.2 0.75
vt 0.2 0.7777778
vt 0.275 0.7777778
vt 0.275 0.8055556
vt 0.25 0.8055556
vt 0.225 0.8055556
vt 0.25 0.8333333
vt 0.225 0.8333333
vt 0.15 0.75
vt 0.175 0.75
vt 0.175 0.7777778
vt 0.15 0.7777778
vt 0.2 0.8055556
vt 0.175 0.8055556
vt 0.15 0.8055556
vt 0.125 0.7777778
vt 0.125 0.8055556
vt 0.15 0.8333333
vt 0.175 0.8333333
vt 0.175 0.8611111
vt 0.15 0.8611111
vt 0.525 0.4166667
vt 0.525 0.4444444
vt 0.5 0.4444444
vt 0.5 0.4166667
vt 0.525 0.3888889
vt 0.5 0.3888889
vt 0.475 0.4444444
vt 0.475 0.4166667
vt 0.475 0.3888889
vt 0.45 0.4444444
vt 0.45 0.4166667
vt 0.45 0.3888889
vt 0.25 0.8611111
vt 0.225 0.8611111
vt 0.85 0.9444444
vt 0.875 0.9444444
vt 0.875 0.9722222
vt 0.85 0.9722222
vt 0.825 0.9722222
vt 0.85 1
vt 0.825 1

# Normal
vn 0 0 -1

# Mesh description
g Map-2-1_mesh_0009

# Faces
f 1/1/1 2/2/1 3/3/1 4/4/1
f 5/1/1 6/2/1 7/3/1 8/4/1
f 9/1/1 10/2/1 11/3/1 12/4/1
f 13/5/1 14/1/1 15/4/1 16/6/1
f 17/3/1 18/7/1 19/8/1 20/9/1
f 21/4/1 22/3/1 23/9/1 24/10/1
f 25/4/1 26/3/1 27/9/1 28/10/1
f 29/4/1 30/3/1 31/9/1 32/10/1
f 33/10/1 34/9/1 35/11/1 36/12/1
f 37/10/1 38/9/1 39/11/1 40/12/1
f 41/10/1 42/9/1 43/11/1 44/12/1
f 45/13/1 46/14/1 47/15/1 48/16/1
f 49/15/1 50/6/1 51/17/1 52/18/1
f 53/16/1 54/15/1 55/18/1 56/19/1
f 57/20/1 58/16/1 59/19/1 60/21/1
f 61/15/1 62/6/1 63/17/1 64/18/1
f 65/16/1 66/15/1 67/18/1 68/19/1
f 69/20/1 70/16/1 71/19/1 72/21/1
f 73/22/1 74/23/1 75/24/1 76/25/1
f 77/26/1 78/27/1 79/28/1 80/29/1
f 81/30/1 82/26/1 83/29/1 84/31/1
f 85/29/1 86/28/1 87/32/1 88/33/1
f 89/31/1 90/29/1 91/33/1 92/34/1
f 93/33/1 94/32/1 95/35/1 96/36/1
f 97/34/1 98/33/1 99/36/1 100/37/1
f 101/12/1 102/11/1 103/38/1 104/39/1
f 105/40/1 106/41/1 107/42/1 108/43/1
f 109/44/1 110/43/1 111/45/1 112/46/1

