# Tiled2Unity generated file. Do not modify by hand.
# Wavefront file for 'Map-1-3_mesh_0011.obj'

# Vertices (Count = 36)
v -17 -19 0
v -18 -19 0
v -18 -18 0
v -17 -18 0
v -16 -19 0
v -17 -19 0
v -17 -18 0
v -16 -18 0
v -15 -19 0
v -16 -19 0
v -16 -18 0
v -15 -18 0
v -14 -19 0
v -15 -19 0
v -15 -18 0
v -14 -18 0
v -13 -19 0
v -14 -19 0
v -14 -18 0
v -13 -18 0
v -18 -14 0
v -19 -14 0
v -19 -13 0
v -18 -13 0
v 0 -12 0
v -1 -12 0
v -1 -11 0
v 0 -11 0
v -7 -11 0
v -8 -11 0
v -8 -10 0
v -7 -10 0
v -13 -8 0
v -14 -8 0
v -14 -7 0
v -13 -7 0

# Texture cooridinates (Count = 8)
vt 0.75 0.9722222
vt 0.775 0.9722222
vt 0.775 1
vt 0.75 1
vt 0.8 0.9722222
vt 0.825 0.9722222
vt 0.825 1
vt 0.8 1

# Normal
vn 0 0 -1

# Mesh description
g Map-1-3_mesh_0011

# Faces
f 1/1/1 2/2/1 3/3/1 4/4/1
f 5/1/1 6/2/1 7/3/1 8/4/1
f 9/1/1 10/2/1 11/3/1 12/4/1
f 13/1/1 14/2/1 15/3/1 16/4/1
f 17/1/1 18/2/1 19/3/1 20/4/1
f 21/5/1 22/6/1 23/7/1 24/8/1
f 25/5/1 26/6/1 27/7/1 28/8/1
f 29/5/1 30/6/1 31/7/1 32/8/1
f 33/5/1 34/6/1 35/7/1 36/8/1

