# Tiled2Unity generated file. Do not modify by hand.
# Wavefront file for 'Map-1-3_mesh_0005.obj'

# Vertices (Count = 120)
v -23 -19 0
v -24 -19 0
v -24 -18 0
v -23 -18 0
v -22 -19 0
v -23 -19 0
v -23 -18 0
v -22 -18 0
v -21 -19 0
v -22 -19 0
v -22 -18 0
v -21 -18 0
v -21 -18 0
v -22 -18 0
v -22 -17 0
v -21 -17 0
v -25 -17 0
v -26 -17 0
v -26 -16 0
v -25 -16 0
v -24 -17 0
v -25 -17 0
v -25 -16 0
v -24 -16 0
v -21 -17 0
v -22 -17 0
v -22 -16 0
v -21 -16 0
v -13 -17 0
v -14 -17 0
v -14 -16 0
v -13 -16 0
v -9 -17 0
v -10 -17 0
v -10 -16 0
v -9 -16 0
v -21 -16 0
v -22 -16 0
v -22 -15 0
v -21 -15 0
v -23 -15 0
v -24 -15 0
v -24 -14 0
v -23 -14 0
v -22 -15 0
v -23 -15 0
v -23 -14 0
v -22 -14 0
v -21 -15 0
v -22 -15 0
v -22 -14 0
v -21 -14 0
v -12 -15 0
v -13 -15 0
v -13 -14 0
v -12 -14 0
v -21 -14 0
v -22 -14 0
v -22 -13 0
v -21 -13 0
v -11 -14 0
v -12 -14 0
v -12 -13 0
v -11 -13 0
v -25 -13 0
v -26 -13 0
v -26 -12 0
v -25 -12 0
v -24 -13 0
v -25 -13 0
v -25 -12 0
v -24 -12 0
v -21 -13 0
v -22 -13 0
v -22 -12 0
v -21 -12 0
v -18 -13 0
v -19 -13 0
v -19 -12 0
v -18 -12 0
v 0 -13 0
v -1 -13 0
v -1 -12 0
v 0 -12 0
v -21 -12 0
v -22 -12 0
v -22 -11 0
v -21 -11 0
v -23 -11 0
v -24 -11 0
v -24 -10 0
v -23 -10 0
v -22 -11 0
v -23 -11 0
v -23 -10 0
v -22 -10 0
v -21 -11 0
v -22 -11 0
v -22 -10 0
v -21 -10 0
v -25 -8 0
v -26 -8 0
v -26 -7 0
v -25 -7 0
v -24 -8 0
v -25 -8 0
v -25 -7 0
v -24 -7 0
v -7 -6 0
v -8 -6 0
v -8 -5 0
v -7 -5 0
v -25 -3 0
v -26 -3 0
v -26 -2 0
v -25 -2 0
v -23 -2 0
v -24 -2 0
v -24 -1 0
v -23 -1 0

# Texture cooridinates (Count = 28)
vt 0.025 0.5277778
vt 0.05 0.5277778
vt 0.05 0.5555556
vt 0.025 0.5555556
vt 0 0.5277778
vt 0 0.5555556
vt 0.1 0.4722222
vt 0.125 0.4722222
vt 0.125 0.5
vt 0.1 0.5
vt 0.275 0.8333333
vt 0.25 0.8333333
vt 0.25 0.8611111
vt 0.275 0.8611111
vt 0.175 0.8333333
vt 0.2 0.8333333
vt 0.2 0.8611111
vt 0.175 0.8611111
vt 0.225 0.8333333
vt 0.225 0.8611111
vt 0.125 0.9166667
vt 0.15 0.9166667
vt 0.15 0.9444444
vt 0.125 0.9444444
vt 0.1 0.9166667
vt 0.1 0.9444444
vt 0.15 0.8333333
vt 0.15 0.8611111

# Normal
vn 0 0 -1

# Mesh description
g Map-1-3_mesh_0005

# Faces
f 1/1/1 2/2/1 3/3/1 4/4/1
f 5/5/1 6/1/1 7/4/1 8/6/1
f 9/7/1 10/8/1 11/9/1 12/10/1
f 13/7/1 14/8/1 15/9/1 16/10/1
f 17/1/1 18/2/1 19/3/1 20/4/1
f 21/5/1 22/1/1 23/4/1 24/6/1
f 25/7/1 26/8/1 27/9/1 28/10/1
f 29/11/1 30/12/1 31/13/1 32/14/1
f 33/12/1 34/11/1 35/14/1 36/13/1
f 37/7/1 38/8/1 39/9/1 40/10/1
f 41/1/1 42/2/1 43/3/1 44/4/1
f 45/5/1 46/1/1 47/4/1 48/6/1
f 49/7/1 50/8/1 51/9/1 52/10/1
f 53/12/1 54/11/1 55/14/1 56/13/1
f 57/7/1 58/8/1 59/9/1 60/10/1
f 61/15/1 62/16/1 63/17/1 64/18/1
f 65/1/1 66/2/1 67/3/1 68/4/1
f 69/5/1 70/1/1 71/4/1 72/6/1
f 73/7/1 74/8/1 75/9/1 76/10/1
f 77/16/1 78/19/1 79/20/1 80/17/1
f 81/12/1 82/19/1 83/20/1 84/13/1
f 85/7/1 86/8/1 87/9/1 88/10/1
f 89/1/1 90/2/1 91/3/1 92/4/1
f 93/5/1 94/1/1 95/4/1 96/6/1
f 97/7/1 98/8/1 99/9/1 100/10/1
f 101/21/1 102/22/1 103/23/1 104/24/1
f 105/25/1 106/21/1 107/24/1 108/26/1
f 109/27/1 110/15/1 111/18/1 112/28/1
f 113/12/1 114/11/1 115/14/1 116/13/1
f 117/19/1 118/12/1 119/13/1 120/20/1

