# Tiled2Unity generated file. Do not modify by hand.
# Wavefront file for 'Map-1-3_mesh_0010.obj'

# Vertices (Count = 32)
v -14 -15 0
v -15 -15 0
v -15 -14 0
v -14 -14 0
v -20 -12 0
v -21 -12 0
v -21 -11 0
v -20 -11 0
v -19 -12 0
v -20 -12 0
v -20 -11 0
v -19 -11 0
v -15 -12 0
v -16 -12 0
v -16 -11 0
v -15 -11 0
v -20 -11 0
v -21 -11 0
v -21 -10 0
v -20 -10 0
v -19 -11 0
v -20 -11 0
v -20 -10 0
v -19 -10 0
v 0 -10 0
v -1 -10 0
v -1 -9 0
v 0 -9 0
v -16 -5 0
v -17 -5 0
v -17 -4 0
v -16 -4 0

# Texture cooridinates (Count = 18)
vt 0.25 0.8333333
vt 0.225 0.8333333
vt 0.225 0.8611111
vt 0.25 0.8611111
vt 0.75 0.9444444
vt 0.775 0.9444444
vt 0.775 0.9722222
vt 0.75 0.9722222
vt 0.925 0.9166667
vt 0.95 0.9166667
vt 0.95 0.9444444
vt 0.925 0.9444444
vt 0.775 1
vt 0.75 1
vt 0.025 0.75
vt 0.05 0.75
vt 0.05 0.7777778
vt 0.025 0.7777778

# Normal
vn 0 0 -1

# Mesh description
g Map-1-3_mesh_0010

# Faces
f 1/1/1 2/2/1 3/3/1 4/4/1
f 5/5/1 6/6/1 7/7/1 8/8/1
f 9/5/1 10/6/1 11/7/1 12/8/1
f 13/9/1 14/10/1 15/11/1 16/12/1
f 17/8/1 18/7/1 19/13/1 20/14/1
f 21/8/1 22/7/1 23/13/1 24/14/1
f 25/15/1 26/16/1 27/17/1 28/18/1
f 29/10/1 30/9/1 31/12/1 32/11/1

