# Tiled2Unity generated file. Do not modify by hand.
# Wavefront file for 'Map-1-3_mesh_0012.obj'

# Vertices (Count = 48)
v -1 -17 0
v -2 -17 0
v -2 -16 0
v -1 -16 0
v -11 -13 0
v -12 -13 0
v -12 -12 0
v -11 -12 0
v -10 -13 0
v -11 -13 0
v -11 -12 0
v -10 -12 0
v -25 -7 0
v -26 -7 0
v -26 -6 0
v -25 -6 0
v -24 -7 0
v -25 -7 0
v -25 -6 0
v -24 -6 0
v -20 -6 0
v -21 -6 0
v -21 -5 0
v -20 -5 0
v -19 -6 0
v -20 -6 0
v -20 -5 0
v -19 -5 0
v -18 -6 0
v -19 -6 0
v -19 -5 0
v -18 -5 0
v -17 -5 0
v -18 -5 0
v -18 -4 0
v -17 -4 0
v -16 -5 0
v -17 -5 0
v -17 -4 0
v -16 -4 0
v -15 -5 0
v -16 -5 0
v -16 -4 0
v -15 -4 0
v -14 -5 0
v -15 -5 0
v -15 -4 0
v -14 -4 0

# Texture cooridinates (Count = 20)
vt 0.825 0.9722222
vt 0.85 0.9722222
vt 0.85 1
vt 0.825 1
vt 0.125 0.9444444
vt 0.15 0.9444444
vt 0.15 0.9722222
vt 0.125 0.9722222
vt 0.1 0.9444444
vt 0.1 0.9722222
vt 0.15 0.6944444
vt 0.125 0.6944444
vt 0.125 0.6666666
vt 0.15 0.6666666
vt 0.15 0.7222222
vt 0.175 0.6944444
vt 0.175 0.7222222
vt 0.175 0.6666666
vt 0.1 0.6944444
vt 0.1 0.6666666

# Normal
vn 0 0 -1

# Mesh description
g Map-1-3_mesh_0012

# Faces
f 1/1/1 2/2/1 3/3/1 4/4/1
f 5/1/1 6/2/1 7/3/1 8/4/1
f 9/1/1 10/2/1 11/3/1 12/4/1
f 13/5/1 14/6/1 15/7/1 16/8/1
f 17/9/1 18/5/1 19/8/1 20/10/1
f 21/11/1 22/12/1 23/13/1 24/14/1
f 25/15/1 26/11/1 27/16/1 28/17/1
f 29/15/1 30/11/1 31/16/1 32/17/1
f 33/11/1 34/16/1 35/18/1 36/14/1
f 37/11/1 38/12/1 39/13/1 40/14/1
f 41/11/1 42/12/1 43/13/1 44/14/1
f 45/13/1 46/12/1 47/19/1 48/20/1

