# Tiled2Unity generated file. Do not modify by hand.
# Wavefront file for 'House-1-1_mesh_0005.obj'

# Vertices (Count = 52)
v -11 -1 0
v -12 -1 0
v -12 0 0
v -11 0 0
v -5 -1 0
v -6 -1 0
v -6 0 0
v -5 0 0
v -2 -1 0
v -3 -1 0
v -3 0 0
v -2 0 0
v -11 -2 0
v -12 -2 0
v -12 -1 0
v -11 -1 0
v -8 -2 0
v -9 -2 0
v -9 -1 0
v -8 -1 0
v -7 -2 0
v -8 -2 0
v -8 -1 0
v -7 -1 0
v -6 -2 0
v -7 -2 0
v -7 -1 0
v -6 -1 0
v -5 -2 0
v -6 -2 0
v -6 -1 0
v -5 -1 0
v -2 -2 0
v -3 -2 0
v -3 -1 0
v -2 -1 0
v -2 -5 0
v -3 -5 0
v -3 -4 0
v -2 -4 0
v -9 -6 0
v -10 -6 0
v -10 -5 0
v -9 -5 0
v -8 -6 0
v -9 -6 0
v -9 -5 0
v -8 -5 0
v -6 -9 0
v -7 -9 0
v -7 -8 0
v -6 -8 0

# Texture cooridinates (Count = 34)
vt 0.1 0.36
vt 0.125 0.36
vt 0.125 0.4
vt 0.1 0.4
vt 0.05 0.56
vt 0.075 0.56
vt 0.075 0.6
vt 0.05 0.6
vt 0.1 0.32
vt 0.125 0.32
vt 0.2 0.64
vt 0.225 0.64
vt 0.225 0.68
vt 0.2 0.68
vt 0.25 0.64
vt 0.25 0.68
vt 0.275 0.56
vt 0.3 0.56
vt 0.3 0.6
vt 0.275 0.6
vt 0.05 0.52
vt 0.075 0.52
vt 0.15 0.48
vt 0.175 0.48
vt 0.175 0.52
vt 0.15 0.52
vt 0.35 0.72
vt 0.375 0.72
vt 0.375 0.76
vt 0.35 0.76
vt 0.2 0.48
vt 0.225 0.48
vt 0.225 0.52
vt 0.2 0.52

# Normal
vn 0 0 -1

# Mesh description
g House-1-1_mesh_0005

# Faces
f 1/1/1 2/2/1 3/3/1 4/4/1
f 5/5/1 6/6/1 7/7/1 8/8/1
f 9/1/1 10/2/1 11/3/1 12/4/1
f 13/9/1 14/10/1 15/2/1 16/1/1
f 17/11/1 18/12/1 19/13/1 20/14/1
f 21/12/1 22/15/1 23/16/1 24/13/1
f 25/17/1 26/18/1 27/19/1 28/20/1
f 29/21/1 30/22/1 31/6/1 32/5/1
f 33/9/1 34/10/1 35/2/1 36/1/1
f 37/23/1 38/24/1 39/25/1 40/26/1
f 41/27/1 42/28/1 43/29/1 44/30/1
f 45/27/1 46/28/1 47/29/1 48/30/1
f 49/31/1 50/32/1 51/33/1 52/34/1

