# Tiled2Unity generated file. Do not modify by hand.
# Wavefront file for 'House-1-1_mesh_0003.obj'

# Vertices (Count = 140)
v -8 -1 0
v -9 -1 0
v -9 0 0
v -8 0 0
v -7 -1 0
v -8 -1 0
v -8 0 0
v -7 0 0
v -6 -1 0
v -7 -1 0
v -7 0 0
v -6 0 0
v -12 -2 0
v -13 -2 0
v -13 -1 0
v -12 -1 0
v -8 -2 0
v -9 -2 0
v -9 -1 0
v -8 -1 0
v -7 -2 0
v -8 -2 0
v -8 -1 0
v -7 -1 0
v -6 -2 0
v -7 -2 0
v -7 -1 0
v -6 -1 0
v -4 -2 0
v -5 -2 0
v -5 -1 0
v -4 -1 0
v -3 -2 0
v -4 -2 0
v -4 -1 0
v -3 -1 0
v -12 -3 0
v -13 -3 0
v -13 -2 0
v -12 -2 0
v -8 -3 0
v -9 -3 0
v -9 -2 0
v -8 -2 0
v -7 -3 0
v -8 -3 0
v -8 -2 0
v -7 -2 0
v -6 -3 0
v -7 -3 0
v -7 -2 0
v -6 -2 0
v -5 -3 0
v -6 -3 0
v -6 -2 0
v -5 -2 0
v -4 -3 0
v -5 -3 0
v -5 -2 0
v -4 -2 0
v -3 -3 0
v -4 -3 0
v -4 -2 0
v -3 -2 0
v -4 -4 0
v -5 -4 0
v -5 -3 0
v -4 -3 0
v -3 -4 0
v -4 -4 0
v -4 -3 0
v -3 -3 0
v -2 -5 0
v -3 -5 0
v -3 -4 0
v -2 -4 0
v -10 -6 0
v -11 -6 0
v -11 -5 0
v -10 -5 0
v -9 -6 0
v -10 -6 0
v -10 -5 0
v -9 -5 0
v -8 -6 0
v -9 -6 0
v -9 -5 0
v -8 -5 0
v -7 -6 0
v -8 -6 0
v -8 -5 0
v -7 -5 0
v -2 -6 0
v -3 -6 0
v -3 -5 0
v -2 -5 0
v -10 -7 0
v -11 -7 0
v -11 -6 0
v -10 -6 0
v -9 -7 0
v -10 -7 0
v -10 -6 0
v -9 -6 0
v -8 -7 0
v -9 -7 0
v -9 -6 0
v -8 -6 0
v -7 -7 0
v -8 -7 0
v -8 -6 0
v -7 -6 0
v -2 -7 0
v -3 -7 0
v -3 -6 0
v -2 -6 0
v -2 -8 0
v -3 -8 0
v -3 -7 0
v -2 -7 0
v -6 -9 0
v -7 -9 0
v -7 -8 0
v -6 -8 0
v -12 -10 0
v -13 -10 0
v -13 -9 0
v -12 -9 0
v -8 -10 0
v -9 -10 0
v -9 -9 0
v -8 -9 0
v -6 -10 0
v -7 -10 0
v -7 -9 0
v -6 -9 0
v -2 -10 0
v -3 -10 0
v -3 -9 0
v -2 -9 0

# Texture cooridinates (Count = 78)
vt 0.3 0.68
vt 0.325 0.68
vt 0.325 0.72
vt 0.3 0.72
vt 0.275 0.68
vt 0.275 0.72
vt 0.25 0.68
vt 0.25 0.72
vt 0.2 0.48
vt 0.225 0.48
vt 0.225 0.52
vt 0.2 0.52
vt 0.3 0.64
vt 0.325 0.64
vt 0.275 0.64
vt 0.25 0.64
vt 0.525 0.92
vt 0.55 0.92
vt 0.55 0.96
vt 0.525 0.96
vt 0.5 0.92
vt 0.5 0.96
vt 0.2 0.44
vt 0.225 0.44
vt 0.3 0.6
vt 0.325 0.6
vt 0.275 0.6
vt 0.25 0.6
vt 0.275 0.56
vt 0.3 0.56
vt 0.525 0.88
vt 0.55 0.88
vt 0.5 0.88
vt 0.525 0.84
vt 0.55 0.84
vt 0.5 0.84
vt 0.15 0.48
vt 0.175 0.48
vt 0.175 0.52
vt 0.15 0.52
vt 0.45 0.76
vt 0.475 0.76
vt 0.475 0.8
vt 0.45 0.8
vt 0.375 0.92
vt 0.4 0.92
vt 0.4 0.96
vt 0.375 0.96
vt 0.325 0.92
vt 0.35 0.92
vt 0.35 0.96
vt 0.325 0.96
vt 0.35 0.8
vt 0.375 0.8
vt 0.375 0.84
vt 0.35 0.84
vt 0.15 0.44
vt 0.175 0.44
vt 0.45 0.72
vt 0.475 0.72
vt 0.4 0.84
vt 0.4 0.88
vt 0.375 0.88
vt 0.325 0.84
vt 0.35 0.88
vt 0.325 0.88
vt 0.4 0.72
vt 0.425 0.72
vt 0.425 0.76
vt 0.4 0.76
vt 0.15 0.4
vt 0.175 0.4
vt 0.15 0.36
vt 0.175 0.36
vt 0.25 0.52
vt 0.275 0.52
vt 0.25 0.56
vt 0.3 0.52

# Normal
vn 0 0 -1

# Mesh description
g House-1-1_mesh_0003

# Faces
f 1/1/1 2/2/1 3/3/1 4/4/1
f 5/5/1 6/1/1 7/4/1 8/6/1
f 9/7/1 10/5/1 11/6/1 12/8/1
f 13/9/1 14/10/1 15/11/1 16/12/1
f 17/13/1 18/14/1 19/2/1 20/1/1
f 21/15/1 22/13/1 23/1/1 24/5/1
f 25/16/1 26/15/1 27/5/1 28/7/1
f 29/17/1 30/18/1 31/19/1 32/20/1
f 33/21/1 34/17/1 35/20/1 36/22/1
f 37/23/1 38/24/1 39/10/1 40/9/1
f 41/25/1 42/26/1 43/14/1 44/13/1
f 45/27/1 46/25/1 47/13/1 48/15/1
f 49/28/1 50/27/1 51/15/1 52/16/1
f 53/29/1 54/30/1 55/25/1 56/27/1
f 57/31/1 58/32/1 59/18/1 60/17/1
f 61/33/1 62/31/1 63/17/1 64/21/1
f 65/34/1 66/35/1 67/32/1 68/31/1
f 69/36/1 70/34/1 71/31/1 72/33/1
f 73/37/1 74/38/1 75/39/1 76/40/1
f 77/41/1 78/42/1 79/43/1 80/44/1
f 81/45/1 82/46/1 83/47/1 84/48/1
f 85/49/1 86/50/1 87/51/1 88/52/1
f 89/53/1 90/54/1 91/55/1 92/56/1
f 93/57/1 94/58/1 95/38/1 96/37/1
f 97/59/1 98/60/1 99/42/1 100/41/1
f 101/55/1 102/61/1 103/62/1 104/63/1
f 105/64/1 106/56/1 107/65/1 108/66/1
f 109/67/1 110/68/1 111/69/1 112/70/1
f 113/71/1 114/72/1 115/58/1 116/57/1
f 117/73/1 118/74/1 119/72/1 120/71/1
f 121/75/1 122/76/1 123/29/1 124/77/1
f 125/76/1 126/78/1 127/30/1 128/29/1
f 129/76/1 130/78/1 131/30/1 132/29/1
f 133/23/1 134/24/1 135/10/1 136/9/1
f 137/76/1 138/78/1 139/30/1 140/29/1

