# Tiled2Unity generated file. Do not modify by hand.
# Wavefront file for 'House-1-1_mesh_0002.obj'

# Vertices (Count = 48)
v -10 -6 0
v -11 -6 0
v -11 -5 0
v -10 -5 0
v -9 -6 0
v -10 -6 0
v -10 -5 0
v -9 -5 0
v -8 -6 0
v -9 -6 0
v -9 -5 0
v -8 -5 0
v -7 -6 0
v -8 -6 0
v -8 -5 0
v -7 -5 0
v -10 -7 0
v -11 -7 0
v -11 -6 0
v -10 -6 0
v -9 -7 0
v -10 -7 0
v -10 -6 0
v -9 -6 0
v -8 -7 0
v -9 -7 0
v -9 -6 0
v -8 -6 0
v -7 -7 0
v -8 -7 0
v -8 -6 0
v -7 -6 0
v -10 -8 0
v -11 -8 0
v -11 -7 0
v -10 -7 0
v -9 -8 0
v -10 -8 0
v -10 -7 0
v -9 -7 0
v -8 -8 0
v -9 -8 0
v -9 -7 0
v -8 -7 0
v -7 -8 0
v -8 -8 0
v -8 -7 0
v -7 -7 0

# Texture cooridinates (Count = 16)
vt 0.05 0.68
vt 0.075 0.68
vt 0.075 0.72
vt 0.05 0.72
vt 0.025 0.68
vt 0.025 0.72
vt 0 0.68
vt 0 0.72
vt 0.05 0.64
vt 0.075 0.64
vt 0.025 0.64
vt 0 0.64
vt 0.05 0.6
vt 0.075 0.6
vt 0.025 0.6
vt 0 0.6

# Normal
vn 0 0 -1

# Mesh description
g House-1-1_mesh_0002

# Faces
f 1/1/1 2/2/1 3/3/1 4/4/1
f 5/5/1 6/1/1 7/4/1 8/6/1
f 9/5/1 10/1/1 11/4/1 12/6/1
f 13/7/1 14/5/1 15/6/1 16/8/1
f 17/9/1 18/10/1 19/2/1 20/1/1
f 21/11/1 22/9/1 23/1/1 24/5/1
f 25/11/1 26/9/1 27/1/1 28/5/1
f 29/12/1 30/11/1 31/5/1 32/7/1
f 33/13/1 34/14/1 35/10/1 36/9/1
f 37/15/1 38/13/1 39/9/1 40/11/1
f 41/15/1 42/13/1 43/9/1 44/11/1
f 45/16/1 46/15/1 47/11/1 48/12/1

