# Tiled2Unity generated file. Do not modify by hand.
# Wavefront file for 'Cave-1-3_mesh_0004.obj'

# Vertices (Count = 16)
v -9 -4 0
v -10 -4 0
v -10 -3 0
v -9 -3 0
v -4 -4 0
v -5 -4 0
v -5 -3 0
v -4 -3 0
v -4 -5 0
v -5 -5 0
v -5 -4 0
v -4 -4 0
v -3 -5 0
v -4 -5 0
v -4 -4 0
v -3 -4 0

# Texture cooridinates (Count = 16)
vt 0.8 0.9722222
vt 0.825 0.9722222
vt 0.825 1
vt 0.8 1
vt 0 0.5
vt 0.025 0.5
vt 0.025 0.5277778
vt 0 0.5277778
vt 0.075 0.4722222
vt 0.1 0.4722222
vt 0.1 0.5
vt 0.075 0.5
vt 0 0.4444444
vt 0.025 0.4444444
vt 0.025 0.4722222
vt 0 0.4722222

# Normal
vn 0 0 -1

# Mesh description
g Cave-1-3_mesh_0004

# Faces
f 1/1/1 2/2/1 3/3/1 4/4/1
f 5/5/1 6/6/1 7/7/1 8/8/1
f 9/9/1 10/10/1 11/11/1 12/12/1
f 13/13/1 14/14/1 15/15/1 16/16/1

