# Tiled2Unity generated file. Do not modify by hand.
# Wavefront file for 'Map-1-2_mesh_0006.obj'

# Vertices (Count = 268)
v -22 -16 0
v -23 -16 0
v -23 -15 0
v -22 -15 0
v -21 -16 0
v -22 -16 0
v -22 -15 0
v -21 -15 0
v -20 -16 0
v -21 -16 0
v -21 -15 0
v -20 -15 0
v -19 -16 0
v -20 -16 0
v -20 -15 0
v -19 -15 0
v -18 -16 0
v -19 -16 0
v -19 -15 0
v -18 -15 0
v -24 -15 0
v -25 -15 0
v -25 -14 0
v -24 -14 0
v -22 -15 0
v -23 -15 0
v -23 -14 0
v -22 -14 0
v -21 -15 0
v -22 -15 0
v -22 -14 0
v -21 -14 0
v -20 -15 0
v -21 -15 0
v -21 -14 0
v -20 -14 0
v -19 -15 0
v -20 -15 0
v -20 -14 0
v -19 -14 0
v -21 -14 0
v -22 -14 0
v -22 -13 0
v -21 -13 0
v -20 -14 0
v -21 -14 0
v -21 -13 0
v -20 -13 0
v -19 -14 0
v -20 -14 0
v -20 -13 0
v -19 -13 0
v -17 -14 0
v -18 -14 0
v -18 -13 0
v -17 -13 0
v -25 -13 0
v -26 -13 0
v -26 -12 0
v -25 -12 0
v -24 -13 0
v -25 -13 0
v -25 -12 0
v -24 -12 0
v -22 -13 0
v -23 -13 0
v -23 -12 0
v -22 -12 0
v -25 -12 0
v -26 -12 0
v -26 -11 0
v -25 -11 0
v -23 -12 0
v -24 -12 0
v -24 -11 0
v -23 -11 0
v -22 -12 0
v -23 -12 0
v -23 -11 0
v -22 -11 0
v -16 -12 0
v -17 -12 0
v -17 -11 0
v -16 -11 0
v -22 -11 0
v -23 -11 0
v -23 -10 0
v -22 -10 0
v -18 -10 0
v -19 -10 0
v -19 -9 0
v -18 -9 0
v -12 -10 0
v -13 -10 0
v -13 -9 0
v -12 -9 0
v -14 -8 0
v -15 -8 0
v -15 -7 0
v -14 -7 0
v -9 -8 0
v -10 -8 0
v -10 -7 0
v -9 -7 0
v -20 -7 0
v -21 -7 0
v -21 -6 0
v -20 -6 0
v -19 -7 0
v -20 -7 0
v -20 -6 0
v -19 -6 0
v -16 -7 0
v -17 -7 0
v -17 -6 0
v -16 -6 0
v -25 -6 0
v -26 -6 0
v -26 -5 0
v -25 -5 0
v -24 -6 0
v -25 -6 0
v -25 -5 0
v -24 -5 0
v -23 -6 0
v -24 -6 0
v -24 -5 0
v -23 -5 0
v -7 -6 0
v -8 -6 0
v -8 -5 0
v -7 -5 0
v -6 -6 0
v -7 -6 0
v -7 -5 0
v -6 -5 0
v -1 -6 0
v -2 -6 0
v -2 -5 0
v -1 -5 0
v 0 -6 0
v -1 -6 0
v -1 -5 0
v 0 -5 0
v -25 -5 0
v -26 -5 0
v -26 -4 0
v -25 -4 0
v -24 -5 0
v -25 -5 0
v -25 -4 0
v -24 -4 0
v -23 -5 0
v -24 -5 0
v -24 -4 0
v -23 -4 0
v -7 -5 0
v -8 -5 0
v -8 -4 0
v -7 -4 0
v -6 -5 0
v -7 -5 0
v -7 -4 0
v -6 -4 0
v -1 -5 0
v -2 -5 0
v -2 -4 0
v -1 -4 0
v 0 -5 0
v -1 -5 0
v -1 -4 0
v 0 -4 0
v -25 -4 0
v -26 -4 0
v -26 -3 0
v -25 -3 0
v -24 -4 0
v -25 -4 0
v -25 -3 0
v -24 -3 0
v -23 -4 0
v -24 -4 0
v -24 -3 0
v -23 -3 0
v -21 -4 0
v -22 -4 0
v -22 -3 0
v -21 -3 0
v -5 -4 0
v -6 -4 0
v -6 -3 0
v -5 -3 0
v -1 -4 0
v -2 -4 0
v -2 -3 0
v -1 -3 0
v -17 -3 0
v -18 -3 0
v -18 -2 0
v -17 -2 0
v -14 -3 0
v -15 -3 0
v -15 -2 0
v -14 -2 0
v -5 -3 0
v -6 -3 0
v -6 -2 0
v -5 -2 0
v -4 -3 0
v -5 -3 0
v -5 -2 0
v -4 -2 0
v -2 -3 0
v -3 -3 0
v -3 -2 0
v -2 -2 0
v -1 -3 0
v -2 -3 0
v -2 -2 0
v -1 -2 0
v -19 -2 0
v -20 -2 0
v -20 -1 0
v -19 -1 0
v -5 -2 0
v -6 -2 0
v -6 -1 0
v -5 -1 0
v -4 -2 0
v -5 -2 0
v -5 -1 0
v -4 -1 0
v -3 -2 0
v -4 -2 0
v -4 -1 0
v -3 -1 0
v -2 -2 0
v -3 -2 0
v -3 -1 0
v -2 -1 0
v -1 -2 0
v -2 -2 0
v -2 -1 0
v -1 -1 0
v -8 -1 0
v -9 -1 0
v -9 0 0
v -8 0 0
v -5 -1 0
v -6 -1 0
v -6 0 0
v -5 0 0
v -4 -1 0
v -5 -1 0
v -5 0 0
v -4 0 0
v -3 -1 0
v -4 -1 0
v -4 0 0
v -3 0 0
v -2 -1 0
v -3 -1 0
v -3 0 0
v -2 0 0
v -1 -1 0
v -2 -1 0
v -2 0 0
v -1 0 0

# Texture cooridinates (Count = 117)
vt 0.075 0.6388889
vt 0.1 0.6388889
vt 0.1 0.6666666
vt 0.075 0.6666666
vt 0.2 0.8055556
vt 0.2 0.8333333
vt 0.175 0.8333333
vt 0.175 0.8055556
vt 0.475 0.5833334
vt 0.5 0.5833334
vt 0.5 0.6111111
vt 0.475 0.6111111
vt 0.525 0.3888889
vt 0.525 0.4166667
vt 0.5 0.4166667
vt 0.5 0.3888889
vt 0.1 0.6944444
vt 0.075 0.6944444
vt 0.2 0.7222222
vt 0.225 0.7222222
vt 0.225 0.75
vt 0.2 0.75
vt 0.15 0.8333333
vt 0.15 0.8055556
vt 0.5 0.4444444
vt 0.475 0.4444444
vt 0.475 0.4166667
vt 0.475 0.3888889
vt 0.125 0.8333333
vt 0.125 0.8055556
vt 0.475 0.6388889
vt 0.5 0.6388889
vt 0.5 0.6666666
vt 0.475 0.6666666
vt 0.45 0.4166667
vt 0.45 0.3888889
vt 0 0.75
vt 0.025 0.75
vt 0.025 0.7777778
vt 0 0.7777778
vt 0.05 0.75
vt 0.05 0.7777778
vt 0.25 0.8333333
vt 0.275 0.8333333
vt 0.275 0.8611111
vt 0.25 0.8611111
vt 0.225 0.8333333
vt 0.225 0.8611111
vt 0.85 0.9444444
vt 0.875 0.9444444
vt 0.875 0.9722222
vt 0.85 0.9722222
vt 0.775 0.9444444
vt 0.8 0.9444444
vt 0.8 0.9722222
vt 0.775 0.9722222
vt 0.8 0.8055556
vt 0.825 0.8055556
vt 0.825 0.8333333
vt 0.8 0.8333333
vt 0.775 0.8055556
vt 0.775 0.8333333
vt 0.125 0.9166667
vt 0.15 0.9166667
vt 0.15 0.9444444
vt 0.125 0.9444444
vt 0.1 0.9166667
vt 0.1 0.9444444
vt 0.875 1
vt 0.85 1
vt 0.775 0.9166667
vt 0.8 0.9166667
vt 0.825 0.8611111
vt 0.8 0.8611111
vt 0.775 0.8611111
vt 0.15 0.9722222
vt 0.125 0.9722222
vt 0.1 0.9722222
vt 0.825 0.9722222
vt 0.825 1
vt 0.75 0.9722222
vt 0.775 1
vt 0.75 1
vt 0.375 0.8888889
vt 0.4 0.8888889
vt 0.4 0.9166667
vt 0.375 0.9166667
vt 0.275 0.8888889
vt 0.3 0.8888889
vt 0.3 0.9166667
vt 0.275 0.9166667
vt 0.9 0.9722222
vt 0.9 1
vt 0.4 0.9444444
vt 0.375 0.9444444
vt 0.35 0.9166667
vt 0.35 0.9444444
vt 0.325 0.9166667
vt 0.325 0.9444444
vt 0.3 0.9444444
vt 0.275 0.9444444
vt 0.4 0.9722222
vt 0.375 0.9722222
vt 0.35 0.9722222
vt 0.325 0.9722222
vt 0.3 0.9722222
vt 0.275 0.9722222
vt 0.05 0.5
vt 0.075 0.5
vt 0.075 0.5277778
vt 0.05 0.5277778
vt 0.4 1
vt 0.375 1
vt 0.35 1
vt 0.325 1
vt 0.3 1
vt 0.275 1

# Normal
vn 0 0 -1

# Mesh description
g Map-1-2_mesh_0006

# Faces
f 1/1/1 2/2/1 3/3/1 4/4/1
f 5/5/1 6/6/1 7/7/1 8/8/1
f 9/9/1 10/10/1 11/11/1 12/12/1
f 13/13/1 14/14/1 15/15/1 16/16/1
f 17/4/1 18/3/1 19/17/1 20/18/1
f 21/1/1 22/2/1 23/3/1 24/4/1
f 25/19/1 26/20/1 27/21/1 28/22/1
f 29/8/1 30/7/1 31/23/1 32/24/1
f 33/15/1 34/25/1 35/26/1 36/27/1
f 37/16/1 38/15/1 39/27/1 40/28/1
f 41/24/1 42/23/1 43/29/1 44/30/1
f 45/31/1 46/32/1 47/33/1 48/34/1
f 49/28/1 50/27/1 51/35/1 52/36/1
f 53/37/1 54/38/1 55/39/1 56/40/1
f 57/37/1 58/38/1 59/39/1 60/40/1
f 61/19/1 62/20/1 63/21/1 64/22/1
f 65/4/1 66/3/1 67/17/1 68/18/1
f 69/4/1 70/3/1 71/17/1 72/18/1
f 73/37/1 74/38/1 75/39/1 76/40/1
f 77/38/1 78/41/1 79/42/1 80/39/1
f 81/43/1 82/44/1 83/45/1 84/46/1
f 85/47/1 86/43/1 87/46/1 88/48/1
f 89/47/1 90/43/1 91/46/1 92/48/1
f 93/37/1 94/38/1 95/39/1 96/40/1
f 97/47/1 98/43/1 99/46/1 100/48/1
f 101/1/1 102/2/1 103/3/1 104/4/1
f 105/4/1 106/3/1 107/17/1 108/18/1
f 109/1/1 110/2/1 111/3/1 112/4/1
f 113/43/1 114/44/1 115/45/1 116/46/1
f 117/49/1 118/50/1 119/51/1 120/52/1
f 121/53/1 122/54/1 123/55/1 124/56/1
f 125/53/1 126/54/1 127/55/1 128/56/1
f 129/57/1 130/58/1 131/59/1 132/60/1
f 133/61/1 134/57/1 135/60/1 136/62/1
f 137/63/1 138/64/1 139/65/1 140/66/1
f 141/67/1 142/63/1 143/66/1 144/68/1
f 145/52/1 146/51/1 147/69/1 148/70/1
f 149/71/1 150/72/1 151/54/1 152/53/1
f 153/71/1 154/72/1 155/54/1 156/53/1
f 157/60/1 158/59/1 159/73/1 160/74/1
f 161/62/1 162/60/1 163/74/1 164/75/1
f 165/66/1 166/65/1 167/76/1 168/77/1
f 169/68/1 170/66/1 171/77/1 172/78/1
f 173/79/1 174/52/1 175/70/1 176/80/1
f 177/81/1 178/56/1 179/82/1 180/83/1
f 181/81/1 182/56/1 183/82/1 184/83/1
f 185/1/1 186/2/1 187/3/1 188/4/1
f 189/84/1 190/85/1 191/86/1 192/87/1
f 193/88/1 194/89/1 195/90/1 196/91/1
f 197/51/1 198/92/1 199/93/1 200/69/1
f 201/51/1 202/92/1 203/93/1 204/69/1
f 205/87/1 206/86/1 207/94/1 208/95/1
f 209/96/1 210/87/1 211/95/1 212/97/1
f 213/90/1 214/98/1 215/99/1 216/100/1
f 217/91/1 218/90/1 219/100/1 220/101/1
f 221/1/1 222/2/1 223/3/1 224/4/1
f 225/95/1 226/94/1 227/102/1 228/103/1
f 229/97/1 230/95/1 231/103/1 232/104/1
f 233/99/1 234/97/1 235/104/1 236/105/1
f 237/100/1 238/99/1 239/105/1 240/106/1
f 241/101/1 242/100/1 243/106/1 244/107/1
f 245/108/1 246/109/1 247/110/1 248/111/1
f 249/103/1 250/102/1 251/112/1 252/113/1
f 253/104/1 254/103/1 255/113/1 256/114/1
f 257/105/1 258/104/1 259/114/1 260/115/1
f 261/106/1 262/105/1 263/115/1 264/116/1
f 265/107/1 266/106/1 267/116/1 268/117/1

