# Tiled2Unity generated file. Do not modify by hand.
# Wavefront file for 'Map-1-1_mesh_0003.obj'

# Vertices (Count = 164)
v -21 -1 0
v -22 -1 0
v -22 0 0
v -21 0 0
v -20 -1 0
v -21 -1 0
v -21 0 0
v -20 0 0
v -19 -1 0
v -20 -1 0
v -20 0 0
v -19 0 0
v -21 -2 0
v -22 -2 0
v -22 -1 0
v -21 -1 0
v -20 -2 0
v -21 -2 0
v -21 -1 0
v -20 -1 0
v -19 -2 0
v -20 -2 0
v -20 -1 0
v -19 -1 0
v -8 -2 0
v -9 -2 0
v -9 -1 0
v -8 -1 0
v -21 -3 0
v -22 -3 0
v -22 -2 0
v -21 -2 0
v -20 -3 0
v -21 -3 0
v -21 -2 0
v -20 -2 0
v -19 -3 0
v -20 -3 0
v -20 -2 0
v -19 -2 0
v -15 -3 0
v -16 -3 0
v -16 -2 0
v -15 -2 0
v -9 -3 0
v -10 -3 0
v -10 -2 0
v -9 -2 0
v -5 -3 0
v -6 -3 0
v -6 -2 0
v -5 -2 0
v -21 -4 0
v -22 -4 0
v -22 -3 0
v -21 -3 0
v -20 -4 0
v -21 -4 0
v -21 -3 0
v -20 -3 0
v -19 -4 0
v -20 -4 0
v -20 -3 0
v -19 -3 0
v -24 -5 0
v -25 -5 0
v -25 -4 0
v -24 -4 0
v -21 -5 0
v -22 -5 0
v -22 -4 0
v -21 -4 0
v -10 -6 0
v -11 -6 0
v -11 -5 0
v -10 -5 0
v -9 -6 0
v -10 -6 0
v -10 -5 0
v -9 -5 0
v -5 -6 0
v -6 -6 0
v -6 -5 0
v -5 -5 0
v -4 -6 0
v -5 -6 0
v -5 -5 0
v -4 -5 0
v -3 -6 0
v -4 -6 0
v -4 -5 0
v -3 -5 0
v -2 -6 0
v -3 -6 0
v -3 -5 0
v -2 -5 0
v -1 -6 0
v -2 -6 0
v -2 -5 0
v -1 -5 0
v -10 -7 0
v -11 -7 0
v -11 -6 0
v -10 -6 0
v -9 -7 0
v -10 -7 0
v -10 -6 0
v -9 -6 0
v -6 -7 0
v -7 -7 0
v -7 -6 0
v -6 -6 0
v -4 -7 0
v -5 -7 0
v -5 -6 0
v -4 -6 0
v -3 -7 0
v -4 -7 0
v -4 -6 0
v -3 -6 0
v -2 -7 0
v -3 -7 0
v -3 -6 0
v -2 -6 0
v -2 -9 0
v -3 -9 0
v -3 -8 0
v -2 -8 0
v -1 -9 0
v -2 -9 0
v -2 -8 0
v -1 -8 0
v -2 -10 0
v -3 -10 0
v -3 -9 0
v -2 -9 0
v -1 -10 0
v -2 -10 0
v -2 -9 0
v -1 -9 0
v -21 -15 0
v -22 -15 0
v -22 -14 0
v -21 -14 0
v -22 -16 0
v -23 -16 0
v -23 -15 0
v -22 -15 0
v -21 -16 0
v -22 -16 0
v -22 -15 0
v -21 -15 0
v -8 -16 0
v -9 -16 0
v -9 -15 0
v -8 -15 0
v -22 -17 0
v -23 -17 0
v -23 -16 0
v -22 -16 0
v -21 -17 0
v -22 -17 0
v -22 -16 0
v -21 -16 0

# Texture cooridinates (Count = 50)
vt 0.175 0.7777778
vt 0.2 0.7777778
vt 0.2 0.8055556
vt 0.175 0.8055556
vt 0.15 0.7777778
vt 0.15 0.8055556
vt 0.125 0.7777778
vt 0.125 0.8055556
vt 0.175 0.75
vt 0.2 0.75
vt 0.15 0.75
vt 0.125 0.75
vt 0 0.75
vt 0.025 0.75
vt 0.025 0.7777778
vt 0 0.7777778
vt 0.05 0.6388889
vt 0.075 0.6388889
vt 0.075 0.6666666
vt 0.05 0.6666666
vt 0.1 0.6666666
vt 0.1 0.6944444
vt 0.075 0.6944444
vt 0.85 0.9166667
vt 0.875 0.9166667
vt 0.875 0.9444444
vt 0.85 0.9444444
vt 0.75 0.9722222
vt 0.775 0.9722222
vt 0.775 1
vt 0.75 1
vt 0.1 0.6388889
vt 0.775 0.9444444
vt 0.8 0.9444444
vt 0.8 0.9722222
vt 0.475 0.3888889
vt 0.5 0.3888889
vt 0.5 0.4166667
vt 0.475 0.4166667
vt 0.825 0.9722222
vt 0.85 0.9722222
vt 0.85 1
vt 0.825 1
vt 0.825 0.9444444
vt 0.875 0.9722222
vt 0.875 1
vt 0.15 0.8333333
vt 0.175 0.8333333
vt 0.175 0.8611111
vt 0.15 0.8611111

# Normal
vn 0 0 -1

# Mesh description
g Map-1-1_mesh_0003

# Faces
f 1/1/1 2/2/1 3/3/1 4/4/1
f 5/5/1 6/1/1 7/4/1 8/6/1
f 9/7/1 10/5/1 11/6/1 12/8/1
f 13/9/1 14/10/1 15/2/1 16/1/1
f 17/11/1 18/9/1 19/1/1 20/5/1
f 21/12/1 22/11/1 23/5/1 24/7/1
f 25/13/1 26/14/1 27/15/1 28/16/1
f 29/1/1 30/2/1 31/3/1 32/4/1
f 33/5/1 34/1/1 35/4/1 36/6/1
f 37/7/1 38/5/1 39/6/1 40/8/1
f 41/13/1 42/14/1 43/15/1 44/16/1
f 45/17/1 46/18/1 47/19/1 48/20/1
f 49/19/1 50/21/1 51/22/1 52/23/1
f 53/9/1 54/10/1 55/2/1 56/1/1
f 57/11/1 58/9/1 59/1/1 60/5/1
f 61/12/1 62/11/1 63/5/1 64/7/1
f 65/19/1 66/21/1 67/22/1 68/23/1
f 69/24/1 70/25/1 71/26/1 72/27/1
f 73/28/1 74/29/1 75/30/1 76/31/1
f 77/28/1 78/29/1 79/30/1 80/31/1
f 81/19/1 82/21/1 83/22/1 84/23/1
f 85/5/1 86/1/1 87/4/1 88/6/1
f 89/5/1 90/1/1 91/4/1 92/6/1
f 93/5/1 94/1/1 95/4/1 96/6/1
f 97/18/1 98/32/1 99/21/1 100/19/1
f 101/33/1 102/34/1 103/35/1 104/29/1
f 105/33/1 106/34/1 107/35/1 108/29/1
f 109/13/1 110/14/1 111/15/1 112/16/1
f 113/9/1 114/10/1 115/2/1 116/1/1
f 117/36/1 118/37/1 119/38/1 120/39/1
f 121/12/1 122/11/1 123/5/1 124/7/1
f 125/40/1 126/41/1 127/42/1 128/43/1
f 129/40/1 130/41/1 131/42/1 132/43/1
f 133/44/1 134/27/1 135/41/1 136/40/1
f 137/44/1 138/27/1 139/41/1 140/40/1
f 141/41/1 142/45/1 143/46/1 144/42/1
f 145/41/1 146/45/1 147/46/1 148/42/1
f 149/41/1 150/45/1 151/46/1 152/42/1
f 153/47/1 154/48/1 155/49/1 156/50/1
f 157/27/1 158/26/1 159/45/1 160/41/1
f 161/27/1 162/26/1 163/45/1 164/41/1

