# Tiled2Unity generated file. Do not modify by hand.
# Wavefront file for 'Map-1-1_mesh_0002.obj'

# Vertices (Count = 196)
v -25 -2 0
v -26 -2 0
v -26 -1 0
v -25 -1 0
v -24 -2 0
v -25 -2 0
v -25 -1 0
v -24 -1 0
v -23 -2 0
v -24 -2 0
v -24 -1 0
v -23 -1 0
v -22 -2 0
v -23 -2 0
v -23 -1 0
v -22 -1 0
v -21 -2 0
v -22 -2 0
v -22 -1 0
v -21 -1 0
v -19 -2 0
v -20 -2 0
v -20 -1 0
v -19 -1 0
v -18 -2 0
v -19 -2 0
v -19 -1 0
v -18 -1 0
v -17 -2 0
v -18 -2 0
v -18 -1 0
v -17 -1 0
v -25 -3 0
v -26 -3 0
v -26 -2 0
v -25 -2 0
v -24 -3 0
v -25 -3 0
v -25 -2 0
v -24 -2 0
v -23 -3 0
v -24 -3 0
v -24 -2 0
v -23 -2 0
v -22 -3 0
v -23 -3 0
v -23 -2 0
v -22 -2 0
v -21 -3 0
v -22 -3 0
v -22 -2 0
v -21 -2 0
v -19 -3 0
v -20 -3 0
v -20 -2 0
v -19 -2 0
v -18 -3 0
v -19 -3 0
v -19 -2 0
v -18 -2 0
v -17 -3 0
v -18 -3 0
v -18 -2 0
v -17 -2 0
v -25 -4 0
v -26 -4 0
v -26 -3 0
v -25 -3 0
v -24 -4 0
v -25 -4 0
v -25 -3 0
v -24 -3 0
v -23 -4 0
v -24 -4 0
v -24 -3 0
v -23 -3 0
v -22 -4 0
v -23 -4 0
v -23 -3 0
v -22 -3 0
v -21 -4 0
v -22 -4 0
v -22 -3 0
v -21 -3 0
v -19 -4 0
v -20 -4 0
v -20 -3 0
v -19 -3 0
v -18 -4 0
v -19 -4 0
v -19 -3 0
v -18 -3 0
v -17 -4 0
v -18 -4 0
v -18 -3 0
v -17 -3 0
v -10 -6 0
v -11 -6 0
v -11 -5 0
v -10 -5 0
v -9 -6 0
v -10 -6 0
v -10 -5 0
v -9 -5 0
v -3 -7 0
v -4 -7 0
v -4 -6 0
v -3 -6 0
v -3 -8 0
v -4 -8 0
v -4 -7 0
v -3 -7 0
v -6 -9 0
v -7 -9 0
v -7 -8 0
v -6 -8 0
v -5 -9 0
v -6 -9 0
v -6 -8 0
v -5 -8 0
v -4 -9 0
v -5 -9 0
v -5 -8 0
v -4 -8 0
v -2 -9 0
v -3 -9 0
v -3 -8 0
v -2 -8 0
v -1 -9 0
v -2 -9 0
v -2 -8 0
v -1 -8 0
v 0 -9 0
v -1 -9 0
v -1 -8 0
v 0 -8 0
v -4 -17 0
v -5 -17 0
v -5 -16 0
v -4 -16 0
v -3 -17 0
v -4 -17 0
v -4 -16 0
v -3 -16 0
v -2 -17 0
v -3 -17 0
v -3 -16 0
v -2 -16 0
v -1 -17 0
v -2 -17 0
v -2 -16 0
v -1 -16 0
v 0 -17 0
v -1 -17 0
v -1 -16 0
v 0 -16 0
v -4 -18 0
v -5 -18 0
v -5 -17 0
v -4 -17 0
v -3 -18 0
v -4 -18 0
v -4 -17 0
v -3 -17 0
v -2 -18 0
v -3 -18 0
v -3 -17 0
v -2 -17 0
v -1 -18 0
v -2 -18 0
v -2 -17 0
v -1 -17 0
v 0 -18 0
v -1 -18 0
v -1 -17 0
v 0 -17 0
v -4 -19 0
v -5 -19 0
v -5 -18 0
v -4 -18 0
v -3 -19 0
v -4 -19 0
v -4 -18 0
v -3 -18 0
v -2 -19 0
v -3 -19 0
v -3 -18 0
v -2 -18 0
v -1 -19 0
v -2 -19 0
v -2 -18 0
v -1 -18 0
v 0 -19 0
v -1 -19 0
v -1 -18 0
v 0 -18 0

# Texture cooridinates (Count = 30)
vt 0.2 0.6666666
vt 0.225 0.6666666
vt 0.225 0.6944444
vt 0.2 0.6944444
vt 0.125 0.6388889
vt 0.15 0.6388889
vt 0.15 0.6666666
vt 0.125 0.6666666
vt 0.1 0.6388889
vt 0.1 0.6666666
vt 0.175 0.6388889
vt 0.175 0.6666666
vt 0.15 0.6111111
vt 0.175 0.6111111
vt 0.125 0.6111111
vt 0.1 0.6111111
vt 0.15 0.5833334
vt 0.175 0.5833334
vt 0.125 0.5833334
vt 0.1 0.5833334
vt 0.475 0.4166667
vt 0.5 0.4166667
vt 0.5 0.4444444
vt 0.475 0.4444444
vt 0.475 0.3888889
vt 0.5 0.3888889
vt 0.175 0.4444444
vt 0.2 0.4444444
vt 0.2 0.4722222
vt 0.175 0.4722222

# Normal
vn 0 0 -1

# Mesh description
g Map-1-1_mesh_0002

# Faces
f 1/1/1 2/2/1 3/3/1 4/4/1
f 5/5/1 6/6/1 7/7/1 8/8/1
f 9/9/1 10/5/1 11/8/1 12/10/1
f 13/9/1 14/5/1 15/8/1 16/10/1
f 17/1/1 18/2/1 19/3/1 20/4/1
f 21/6/1 22/11/1 23/12/1 24/7/1
f 25/5/1 26/6/1 27/7/1 28/8/1
f 29/9/1 30/5/1 31/8/1 32/10/1
f 33/13/1 34/14/1 35/11/1 36/6/1
f 37/15/1 38/13/1 39/6/1 40/5/1
f 41/16/1 42/15/1 43/5/1 44/9/1
f 45/16/1 46/15/1 47/5/1 48/9/1
f 49/16/1 50/15/1 51/5/1 52/9/1
f 53/13/1 54/14/1 55/11/1 56/6/1
f 57/1/1 58/2/1 59/3/1 60/4/1
f 61/16/1 62/15/1 63/5/1 64/9/1
f 65/17/1 66/18/1 67/14/1 68/13/1
f 69/19/1 70/17/1 71/13/1 72/15/1
f 73/20/1 74/19/1 75/15/1 76/16/1
f 77/20/1 78/19/1 79/15/1 80/16/1
f 81/20/1 82/19/1 83/15/1 84/16/1
f 85/17/1 86/18/1 87/14/1 88/13/1
f 89/19/1 90/17/1 91/13/1 92/15/1
f 93/20/1 94/19/1 95/15/1 96/16/1
f 97/17/1 98/18/1 99/14/1 100/13/1
f 101/20/1 102/19/1 103/15/1 104/16/1
f 105/21/1 106/22/1 107/23/1 108/24/1
f 109/25/1 110/26/1 111/22/1 112/21/1
f 113/17/1 114/18/1 115/14/1 116/13/1
f 117/19/1 118/17/1 119/13/1 120/15/1
f 121/19/1 122/17/1 123/13/1 124/15/1
f 125/19/1 126/17/1 127/13/1 128/15/1
f 129/19/1 130/17/1 131/13/1 132/15/1
f 133/20/1 134/19/1 135/15/1 136/16/1
f 137/6/1 138/11/1 139/12/1 140/7/1
f 141/5/1 142/6/1 143/7/1 144/8/1
f 145/9/1 146/5/1 147/8/1 148/10/1
f 149/5/1 150/6/1 151/7/1 152/8/1
f 153/9/1 154/5/1 155/8/1 156/10/1
f 157/13/1 158/14/1 159/11/1 160/6/1
f 161/15/1 162/13/1 163/6/1 164/5/1
f 165/16/1 166/15/1 167/5/1 168/9/1
f 169/15/1 170/13/1 171/6/1 172/5/1
f 173/16/1 174/15/1 175/5/1 176/9/1
f 177/17/1 178/18/1 179/14/1 180/13/1
f 181/19/1 182/17/1 183/13/1 184/15/1
f 185/20/1 186/19/1 187/15/1 188/16/1
f 189/19/1 190/17/1 191/13/1 192/15/1
f 193/27/1 194/28/1 195/29/1 196/30/1

